<svg width="121" height="69" viewBox="0 0 121 69" fill="none" xmlns="http://www.w3.org/2000/svg">
<g clip-path="url(#clip0_51_1054)">
<path d="M23.1969 6.39717C25.2625 5.95168 26.6417 4.18052 26.2774 2.44118C25.9131 0.701847 23.9433 -0.347018 21.8777 0.0984778C19.8122 0.543974 18.433 2.31513 18.7972 4.05447C19.1615 5.79381 21.1313 6.84267 23.1969 6.39717Z" fill="#2F3035"/>
<path d="M12.2626 6.27315C11.2322 12.3545 14.5946 20.8023 21.4009 27.7092C26.4988 32.8825 32.4374 36.102 37.6167 36.955C38.2675 37.0651 39.4335 37.2027 40.7893 37.1752C42.1994 37.1201 43.5281 36.8725 44.7212 36.3772C45.0195 36.2396 45.3178 36.047 45.5889 35.8543C41.657 40.2846 38.9183 42.0457 38.9183 42.0457C32.7628 44.1371 23.7872 41.0551 16.3301 34.4785C10.8254 29.6629 7.3274 23.6917 6.32408 18.2982C7.05623 13.6753 9.19844 9.5202 12.2626 6.27315Z" fill="#2F3035"/>
<path d="M23.1618 7.20884C23.1889 7.20884 23.2431 7.18132 23.2703 7.18132C25.6023 6.65849 27.7987 7.97932 28.9376 10.0982C36.8286 24.7374 45.072 24.022 47.0787 20.8299C48.2718 18.9588 47.7837 15.9043 47.4312 14.5835C46.7261 11.7767 45.289 8.66726 42.6044 5.97055C42.6044 5.97055 46.1838 11.0338 45.7771 14.2533C45.6686 15.1889 44.2314 16.4272 39.3775 11.1713L39.3504 11.1438C39.1877 10.9512 39.0521 10.7861 38.9165 10.5935C36.0422 7.1538 32.2459 -0.963827 37.859 1.62281C43.4721 4.20944 46.7261 9.46526 46.7261 9.46526H46.699C46.9973 9.90554 47.2685 10.3733 47.5396 10.8686C47.621 10.9787 47.6752 11.1163 47.7294 11.2264C47.7294 11.2539 47.7566 11.2814 47.7566 11.2814C48.9226 13.4828 49.3836 15.2714 49.3836 15.2714C49.6818 16.2896 49.9259 17.3077 50.0886 18.3809C50.3869 20.4447 50.6309 22.8387 50.0615 25.3703C48.0548 34.5886 33.0051 36.2947 22.2941 17.9957C21.3992 16.4822 20.6128 14.666 20.0434 12.4922C19.4468 10.1532 20.8298 7.73167 23.1618 7.20884Z" fill="#2F3035"/>
</g>
<path d="M9.08469 54.3318C9.08469 55.9369 7.6475 56.9368 5.31548 56.9368H0.0548557V47.3327H5.20701C7.37634 47.3327 8.70505 48.2273 8.70505 49.7534C8.70505 50.7796 8.10849 51.5953 7.18652 51.9374C8.32542 52.3058 9.08469 53.1741 9.08469 54.3318ZM2.46823 49.2535V51.2532H4.71891C5.80358 51.2532 6.29168 50.8849 6.29168 50.2271C6.29168 49.5429 5.77646 49.2272 4.71891 49.2272H2.46823V49.2535ZM4.99008 55.016C6.15609 55.016 6.67131 54.6476 6.67131 53.9898C6.67131 53.253 6.10186 52.9373 4.93585 52.9373H2.46823V55.016H4.99008Z" fill="#2F3035"/>
<path d="M12.9623 53.8319C13.1521 54.7528 13.9927 55.2791 15.1045 55.2791C15.8909 55.2791 16.4332 55.0686 16.9213 54.5423L18.3043 55.7264C17.5179 56.5421 16.4603 57.0946 14.996 57.0946C12.4742 57.0946 10.6303 55.4369 10.6303 53.1477C10.6303 50.8848 12.3386 49.2271 14.8876 49.2271C17.1654 49.2271 18.7652 50.7533 18.7652 52.8057C18.7652 53.1214 18.7381 53.4109 18.6568 53.8582H12.9623V53.8319ZM12.9894 52.4373H16.5417C16.4061 51.49 15.7553 51.0164 14.8605 51.0164C13.8571 51.0164 13.1792 51.569 12.9894 52.4373Z" fill="#2F3035"/>
<path d="M27.5517 52.5178V56.9383H25.2196V56.07C24.7587 56.5962 23.918 57.1225 22.6436 57.1225C21.0166 57.1225 19.9048 56.1226 19.9048 54.7017C19.9048 53.3072 20.8539 52.2547 23.1046 52.2547C23.7554 52.2547 24.596 52.3073 25.1925 52.3599C25.1383 51.5442 24.5688 51.0969 23.3757 51.0969C22.6707 51.0969 21.803 51.36 21.2335 51.781L20.3115 50.2286C21.2606 49.5444 22.508 49.2287 23.6198 49.2287C26.3585 49.1761 27.5517 50.4654 27.5517 52.5178ZM25.1925 53.8071V53.6492C24.7316 53.5966 24.2706 53.5703 23.674 53.5703C22.5351 53.5703 22.1284 53.9387 22.1284 54.4912C22.1284 55.0438 22.6165 55.3332 23.4028 55.3332C24.379 55.3069 25.1112 54.7017 25.1925 53.8071Z" fill="#2F3035"/>
<path d="M29.34 53.1475C29.34 50.8056 31.2381 49.1742 33.7058 49.1742C34.926 49.1742 36.092 49.5953 36.9055 50.5688L35.3599 51.8581C34.8989 51.3056 34.3294 51.0951 33.7058 51.0951C32.594 51.0951 31.6991 51.8055 31.6991 53.1211C31.6991 54.4105 32.594 55.1472 33.76 55.1472C34.3566 55.1472 34.8989 54.963 35.3599 54.3842L36.9055 55.6735C36.092 56.6207 34.926 57.068 33.7058 57.068C31.2381 57.0944 29.34 55.463 29.34 53.1475Z" fill="#2F3035"/>
<path d="M38.1796 53.1211C38.1796 50.8319 40.0235 49.1742 42.5454 49.1742C45.0672 49.1742 46.9111 50.8319 46.9111 53.0948C46.9111 55.384 45.0672 57.068 42.5454 57.068C39.9964 57.0944 38.1796 55.4103 38.1796 53.1211ZM44.552 53.1211C44.552 51.9108 43.7114 51.0951 42.5454 51.0951C41.3794 51.0951 40.5387 51.8845 40.5387 53.0948C40.5387 54.3315 41.3794 55.1472 42.5454 55.1472C43.7114 55.1472 44.552 54.3315 44.552 53.1211Z" fill="#2F3035"/>
<path d="M56.8093 52.3318V56.9102H54.4772V52.7001C54.4772 51.7003 53.9891 51.1477 52.9858 51.1477C51.9283 51.1477 51.1419 51.9897 51.1419 53.1475V56.9102H48.8099V49.3584H51.1419V50.2794C51.7113 49.6479 52.5791 49.1742 53.718 49.1742C55.6161 49.1742 56.8093 50.3583 56.8093 52.3318Z" fill="#2F3035"/>
<path d="M0 68.5143V61.3836H0.813498V68.5143H0Z" fill="#2F3035"/>
<path d="M9.92367 65.2516V68.5143H9.13729V65.3568C9.13729 64.2517 8.54072 63.5939 7.48317 63.5939C6.37139 63.5939 5.47655 64.4622 5.47655 65.6462V68.5143H4.69017V62.9887H5.47655V63.9886C5.91041 63.3834 6.64256 62.9097 7.64587 62.9097C9.02882 62.9097 9.92367 63.8044 9.92367 65.2516Z" fill="#2F3035"/>
<path d="M15.0211 62.989H17.0006V63.6994H15.0211V68.5147H14.2347V63.6994H13.1771V62.989H14.2347V62.568C14.2347 61.4892 14.8855 60.884 15.9159 60.884C16.4311 60.884 16.8921 61.0156 17.1362 61.1208L16.9735 61.8049C16.7294 61.6997 16.404 61.6207 16.0515 61.6207C15.4007 61.6207 15.0211 61.9365 15.0211 62.6733V62.989Z" fill="#2F3035"/>
<path d="M19.2504 65.7515C19.2504 64.0938 20.4978 62.9097 22.2333 62.9097C23.9687 62.9097 25.2161 64.0938 25.2161 65.7515C25.2161 67.4092 23.9687 68.6196 22.2333 68.6196C20.4978 68.6196 19.2504 67.4092 19.2504 65.7515ZM24.4297 65.7515C24.4297 64.4885 23.5078 63.5939 22.2333 63.5939C20.9588 63.5939 20.0368 64.4622 20.0368 65.7515C20.0368 67.0145 20.9588 67.9091 22.2333 67.9091C23.5078 67.9091 24.4297 67.0145 24.4297 65.7515Z" fill="#2F3035"/>
<path d="M32.1325 68.278C31.78 68.4885 31.1834 68.6201 30.7495 68.6201C29.7191 68.6201 29.0683 68.0149 29.0683 66.9887V63.6996H27.9294V62.9892H29.0683L29.1225 61.4894H29.8276V62.9892H31.8884V63.6996H29.8276V66.8571C29.8276 67.515 30.2614 67.936 30.858 67.936C31.1834 67.936 31.6444 67.857 31.9427 67.6991L32.1325 68.278Z" fill="#2F3035"/>
<path d="M35.6312 66.0418C35.7397 67.1732 36.6345 67.91 37.8548 67.91C38.5598 67.91 39.1021 67.6995 39.536 67.2259L40.0512 67.6732C39.5089 68.2257 38.7496 68.5941 37.8005 68.5941C36.0651 68.5941 34.8177 67.41 34.8177 65.726C34.8177 64.0946 35.9837 62.8843 37.7192 62.8843C39.2648 62.8843 40.3495 63.9631 40.3495 65.5682C40.3495 65.6997 40.3495 65.8313 40.2953 66.0155H35.6312V66.0418ZM35.6312 65.384H39.5902C39.4818 64.2262 38.7496 63.5947 37.7192 63.5947C36.5532 63.5947 35.7668 64.3051 35.6312 65.384Z" fill="#2F3035"/>
<path d="M43.3047 65.7523C43.3047 64.0683 44.5792 62.8843 46.2875 62.8843C47.101 62.8843 47.8874 63.1737 48.4568 63.7526L47.8874 64.2262C47.4264 63.7526 46.9112 63.5684 46.2604 63.5684C45.013 63.5684 44.0639 64.4104 44.0639 65.726C44.0639 67.0417 45.013 67.8837 46.2604 67.8837C46.8841 67.8837 47.3993 67.6995 47.8603 67.2259L48.4297 67.6732C47.8603 68.2784 47.0739 68.5678 46.2604 68.5678C44.5792 68.6204 43.3047 67.4364 43.3047 65.7523Z" fill="#2F3035"/>
<path d="M56.9703 65.2524V68.5152H56.1839V65.3577C56.1839 64.2526 55.5874 63.5947 54.5298 63.5947C53.418 63.5947 52.5232 64.4631 52.5232 65.6471V68.5152H51.7368V60.9898H52.5232V63.9894C52.957 63.3842 53.6892 62.9106 54.6925 62.9106C56.0755 62.9106 56.9703 63.8052 56.9703 65.2524Z" fill="#2F3035"/>
<defs>
<clipPath id="clip0_51_1054">
<rect width="114.324" height="42.576" fill="white" transform="translate(6.32408) scale(1.00308)"/>
</clipPath>
</defs>
</svg>
