<svg width="48" height="49" viewBox="0 0 48 49" fill="none" xmlns="http://www.w3.org/2000/svg">
<path fill-rule="evenodd" clip-rule="evenodd" d="M26.2102 2.4554V34.3002H45.2709C45.6991 34.3006 46.1195 34.1824 46.488 33.958C46.8564 33.7336 47.1592 33.4113 47.3645 33.0249C47.5699 32.6386 47.6702 32.2025 47.6548 31.7626C47.6395 31.3226 47.5092 30.895 47.2775 30.5247L30.5976 1.12997C29.3107 -0.928013 26.2126 0.0103272 26.2126 2.45295M17.0779 16.5329L7.23056 30.4904C6.99099 30.8596 6.85345 31.2887 6.83261 31.7319C6.81177 32.1752 6.90843 32.6159 7.11227 33.0071C7.3161 33.3982 7.61945 33.7252 7.98993 33.9529C8.3604 34.1806 8.78409 34.3007 9.21575 34.3002H21.4438V17.8927C21.4438 15.4672 18.3862 14.5166 17.0779 16.5329ZM47.4038 42.7452L45.0206 47.6452C44.8228 48.0521 44.5188 48.3943 44.1425 48.6336C43.7662 48.8729 43.3325 48.9998 42.8901 49H5.95795C5.58797 49 5.22307 48.9114 4.89216 48.7413C4.56124 48.5712 4.27339 48.3243 4.0514 48.02L0.476637 43.1201C0.211086 42.7561 0.0493774 42.3232 0.0096308 41.8701C-0.0301158 41.4169 0.0536701 40.9614 0.2516 40.5544C0.44953 40.1475 0.753783 39.8052 1.13027 39.566C1.50675 39.3268 1.94059 39.2001 2.38318 39.2001H45.2756C45.6817 39.2003 46.081 39.3072 46.4356 39.5106C46.7902 39.714 47.0884 40.0072 47.3018 40.3624C47.5152 40.7175 47.6368 41.1228 47.6551 41.5398C47.6734 41.9569 47.5853 42.3718 47.4038 42.7452Z" fill="white"/>
</svg>
