<svg width="13" height="13" viewBox="0 0 13 13" fill="none" xmlns="http://www.w3.org/2000/svg">
<path d="M0.052157 6.21129C0.124378 6.13906 0.124377 6.06684 0.196598 5.99462L2.36322 3.828C2.65211 3.53911 3.08543 3.53911 3.37432 3.828C3.6632 4.11688 3.6632 4.55021 3.37432 4.83909L2.43544 5.77796L5.7576 5.77796C6.19093 5.77796 6.47981 6.06684 6.47981 6.50017C6.47981 6.93349 6.19093 7.22238 5.7576 7.22238L2.43544 7.22238L3.37432 8.16125C3.6632 8.45013 3.6632 8.88346 3.37432 9.17234C3.22988 9.31678 3.01321 9.389 2.86877 9.389C2.72433 9.389 2.50767 9.31678 2.36322 9.17234L0.196598 7.00571C0.124377 6.93349 0.0521569 6.86127 0.052157 6.78905C-0.0200639 6.57239 -0.0200639 6.42795 0.052157 6.21129Z" fill="#2F3035"/>
<path d="M3.95221 10.9053C4.74664 11.3387 5.61329 11.5553 6.47994 11.5553C9.29655 11.5553 11.5354 9.31649 11.5354 6.49988C11.5354 3.68326 9.29655 1.44442 6.47994 1.44442C5.61329 1.44442 4.74664 1.66108 3.95221 2.0944C3.5911 2.31107 3.15778 2.16662 2.94112 1.80552C2.72445 1.44442 2.86889 1.01109 3.23 0.794428C4.24109 0.288883 5.3244 -6.69257e-07 6.47994 -5.68237e-07C10.091 -2.5255e-07 12.9798 2.88883 12.9798 6.49988C12.9798 10.1109 10.091 12.9998 6.47994 12.9998C5.3244 12.9998 4.24109 12.7109 3.23 12.1331C2.86889 11.9164 2.79667 11.4831 2.94111 11.122C3.15778 10.8331 3.5911 10.6887 3.95221 10.9053Z" fill="#2F3035"/>
</svg>
