<svg width="52" height="53" viewBox="0 0 52 53" fill="none" xmlns="http://www.w3.org/2000/svg">
<path d="M52 28.2153V35.7388C52 36.0171 51.9391 36.2919 51.8217 36.5434C51.7042 36.795 51.5332 37.017 51.3209 37.1934C51.1086 37.3698 50.8604 37.4963 50.594 37.5637C50.3277 37.6311 50.05 37.6377 49.7808 37.5832L33.4473 34.2713V40.6102L36.5715 43.8226C36.9137 44.1746 37.1055 44.649 37.1055 45.1432V50.7858C37.1055 51.0932 37.0312 51.3958 36.8891 51.6674C36.747 51.9389 36.5415 52.171 36.2904 52.3433C36.0394 52.5156 35.7505 52.6229 35.449 52.6558C35.1476 52.6888 34.8428 52.6463 34.5613 52.5321L25.9738 49.0498L17.3864 52.5321C17.1049 52.6463 16.8001 52.6888 16.4987 52.6558C16.1972 52.6229 15.9083 52.5156 15.6573 52.3433C15.4062 52.171 15.2007 51.9389 15.0586 51.6674C14.9165 51.3958 14.8422 51.0932 14.8422 50.7858V45.1432C14.8422 44.6444 15.0376 44.166 15.3855 43.8132L18.5527 40.6023V34.2713L2.21922 37.5832C1.95005 37.6377 1.67229 37.6311 1.40596 37.5637C1.13963 37.4963 0.89137 37.3698 0.679084 37.1934C0.466797 37.017 0.295773 36.795 0.178342 36.5434C0.0609105 36.2919 -6.99197e-07 36.0171 9.9568e-10 35.7388V28.2153C-1.12848e-05 27.866 0.0959188 27.5236 0.277041 27.2265C0.458163 26.9294 0.717321 26.6892 1.02548 26.533L18.5555 17.6471L18.5788 7.52132C18.5794 5.52596 19.3618 3.61256 20.7539 2.20204C22.146 0.791519 24.0338 -0.000578025 26.002 3.1648e-07C27.9702 0.000578658 29.8576 0.793785 31.2489 2.20512C32.6402 3.61646 33.4216 5.53032 33.421 7.52568L33.4445 17.6471L50.9745 26.533C51.2827 26.6892 51.5418 26.9294 51.723 27.2265C51.9041 27.5236 52 27.866 52 28.2153Z" fill="white"/>
</svg>
