<svg width="54" height="31" viewBox="0 0 54 31" fill="none" xmlns="http://www.w3.org/2000/svg">
<path d="M21.2143 0V11.625H19.2857V4.48338C17.981 4.95617 16.7233 5.55034 15.5289 6.25812C12.5479 8.05526 10.0281 10.5284 8.17166 13.4793C6.3152 16.4301 5.17372 19.7765 4.83879 23.25H49.0532C49.1236 23.8937 49.1661 24.5401 49.1805 25.1875C49.1381 21.282 48.0758 17.456 46.0995 14.0913C44.1232 10.7266 41.302 7.94082 37.9176 6.01206C36.8908 5.43846 35.8203 4.94738 34.7162 4.54344V11.625H32.7876V0H27.8987V5.8125H25.9701V0H21.2143ZM32.7857 3.89438C33.2966 4.03829 33.8022 4.2005 34.3016 4.38069C33.8029 4.19989 33.2979 4.03704 32.7876 3.89244L32.7857 3.89438ZM49.1805 25.1875H1.92857C0.862072 25.1875 0 26.0516 0 27.125V29.0625C0 30.1359 0.862072 31 1.92857 31H52.0714C53.1418 31 54 30.1359 54 29.0625V27.125C54 26.0516 53.1418 25.1875 52.0714 25.1875H49.1805Z" fill="white"/>
</svg>
