<svg width="54" height="19" viewBox="0 0 54 19" fill="none" xmlns="http://www.w3.org/2000/svg">
<path fill-rule="evenodd" clip-rule="evenodd" d="M50.0933 9.15486V8.63507H51.6114C52.0957 8.66006 52.5703 8.49245 52.9314 8.16883C53.2926 7.84521 53.511 7.39186 53.5391 6.90774V3.45307C53.511 2.96895 53.2926 2.5156 52.9314 2.19198C52.5703 1.86836 52.0957 1.70075 51.6114 1.72574H49.6251C49.4757 1.46826 49.2925 1.22899 49.0784 1.01487C48.4311 0.367584 47.554 0.00273389 46.6386 0H6.90998C5.99459 0.00273389 5.11747 0.367584 4.47019 1.01487C4.25484 1.23021 4.07076 1.47099 3.92087 1.73016L3.92104 1.72766H2.38372C1.07095 1.72766 0 2.50496 0 3.45499V6.90965C0 7.85968 1.07095 8.63698 2.38372 8.63698H3.45466L3.45532 8.62725V9.15486C3.45399 9.94037 3.72227 10.7025 4.21534 11.314L5.11356 12.4541L9.32824 17.7051C9.37949 17.7584 9.42574 17.8162 9.46643 17.8779C9.79176 18.2316 10.1869 18.514 10.6269 18.7073C11.067 18.9005 11.5423 19.0004 12.0229 19.0006H19.5368C20.3528 18.9975 21.1416 18.7065 21.7641 18.1788C22.3867 17.6511 22.8029 16.9206 22.9396 16.116L23.7515 11.1931C23.8726 10.4791 24.2426 9.83094 24.7959 9.36359C25.3492 8.89625 26.05 8.63987 26.7743 8.63987C27.4985 8.63987 28.1994 8.89625 28.7527 9.36359C29.306 9.83094 29.676 10.4791 29.7971 11.1931L30.4017 14.8032L30.609 16.116C30.7456 16.9206 31.1619 17.6511 31.7844 18.1788C32.4069 18.7065 33.1957 18.9975 34.0118 19.0006H41.5257C42.0431 18.9995 42.5536 18.8825 43.0198 18.6583C43.4861 18.4342 43.8963 18.1085 44.2203 17.7051L49.3332 11.314C49.8263 10.7025 50.0946 9.94037 50.0933 9.15486Z" fill="white"/>
</svg>
