<svg width="42" height="42" viewBox="0 0 42 42" fill="none" xmlns="http://www.w3.org/2000/svg">
<path d="M24.7209 12.2326C23.7741 10.8239 21.8509 10.4755 20.47 11.4624L14.1773 15.96L12.8898 4.93285C12.5614 2.12057 10.1789 0 7.3475 0C4.38021 0 1.93192 2.32234 1.77534 5.2855L0.00283806 38.8293C-0.0882282 40.5527 1.28462 42 3.01041 42H38.8235C40.4869 42 41.8353 40.6516 41.8353 38.9882V14.0617C41.8353 11.8404 39.5129 10.3834 37.513 11.35L27.4096 16.233L24.7209 12.2326ZM4.27398 37.8L6.17298 5.37954C6.21178 4.71723 6.76019 4.2 7.42364 4.2C8.06209 4.2 8.59842 4.68013 8.6688 5.31469L12.272 37.8H4.27398ZM25.0855 27.3C25.0855 28.4563 24.1482 29.4 22.9918 29.4C21.8355 29.4 20.8981 28.4563 20.8981 27.3C20.8981 26.1437 21.8355 25.2 22.9918 25.2C24.1482 25.2 25.0855 26.1437 25.0855 27.3ZM29.273 27.3C29.273 26.1437 30.2104 25.2 31.3667 25.2C32.523 25.2 33.4604 26.1437 33.4604 27.3C33.4604 28.4563 32.523 29.4 31.3667 29.4C30.2104 29.4 29.273 28.4563 29.273 27.3Z" fill="white"/>
</svg>
