<svg width="1255" height="774" viewBox="0 0 1255 774" fill="none" xmlns="http://www.w3.org/2000/svg">
<mask id="path-1-inside-1_215_754" fill="white">
<path fill-rule="evenodd" clip-rule="evenodd" d="M18 0C8.05888 0 0 8.05888 0 18V756C0 765.941 8.05885 774 18 774H1237C1246.94 774 1255 765.941 1255 756V18C1255 8.05888 1246.94 0 1237 0H18ZM1183 42H723V734H1183V42Z"/>
</mask>
<path fill-rule="evenodd" clip-rule="evenodd" d="M18 0C8.05888 0 0 8.05888 0 18V756C0 765.941 8.05885 774 18 774H1237C1246.94 774 1255 765.941 1255 756V18C1255 8.05888 1246.94 0 1237 0H18ZM1183 42H723V734H1183V42Z" fill="black" fill-opacity="0.7"/>
<path d="M723 42V41H722V42H723ZM1183 42H1184V41H1183V42ZM723 734H722V735H723V734ZM1183 734V735H1184V734H1183ZM-1 18V20.0054H1V18H-1ZM-1 24.0163V28.0272H1V24.0163H-1ZM-1 32.0381V36.0489H1V32.0381H-1ZM-1 40.0598V44.0707H1V40.0598H-1ZM-1 48.0815V52.0924H1V48.0815H-1ZM-1 56.1033V60.1141H1V56.1033H-1ZM-1 64.125V68.1359H1V64.125H-1ZM-1 72.1467V76.1576H1V72.1467H-1ZM-1 80.1685V84.1793H1V80.1685H-1ZM-1 88.1902V92.2011H1V88.1902H-1ZM-1 96.212V100.223H1V96.212H-1ZM-1 104.234V108.245H1V104.234H-1ZM-1 112.255V116.266H1V112.255H-1ZM-1 120.277V124.288H1V120.277H-1ZM-1 128.299V132.31H1V128.299H-1ZM-1 136.321V140.332H1V136.321H-1ZM-1 144.342V148.353H1V144.342H-1ZM-1 152.364V156.375H1V152.364H-1ZM-1 160.386V164.397H1V160.386H-1ZM-1 168.408V172.418H1V168.408H-1ZM-1 176.429V180.44H1V176.429H-1ZM-1 184.451V188.462H1V184.451H-1ZM-1 192.473V196.484H1V192.473H-1ZM-1 200.495V204.505H1V200.495H-1ZM-1 208.516V212.527H1V208.516H-1ZM-1 216.538V220.549H1V216.538H-1ZM-1 224.56V228.571H1V224.56H-1ZM-1 232.581V236.592H1V232.581H-1ZM-1 240.603V244.614H1V240.603H-1ZM-1 248.625V252.636H1V248.625H-1ZM-1 256.647V260.658H1V256.647H-1ZM-1 264.668V268.679H1V264.668H-1ZM-1 272.69V276.701H1V272.69H-1ZM-1 280.712V284.723H1V280.712H-1ZM-1 288.734V292.744H1V288.734H-1ZM-1 296.755V300.766H1V296.755H-1ZM-1 304.777V308.788H1V304.777H-1ZM-1 312.799V316.81H1V312.799H-1ZM-1 320.82V324.831H1V320.82H-1ZM-1 328.842V332.853H1V328.842H-1ZM-1 336.864V340.875H1V336.864H-1ZM-1 344.886V348.897H1V344.886H-1ZM-1 352.907V356.918H1V352.907H-1ZM-1 360.929V364.94H1V360.929H-1ZM-1 368.951V372.962H1V368.951H-1ZM-1 376.973V380.983H1V376.973H-1ZM-1 384.994V389.005H1V384.994H-1ZM-1 393.016V397.027H1V393.016H-1ZM-1 401.038V405.049H1V401.038H-1ZM-1 409.059V413.07H1V409.059H-1ZM-1 417.081V421.092H1V417.081H-1ZM-1 425.103V429.114H1V425.103H-1ZM-1 433.125V437.136H1V433.125H-1ZM-1 441.146V445.157H1V441.146H-1ZM-1 449.168V453.179H1V449.168H-1ZM-1 457.19V461.201H1V457.19H-1ZM-1 465.212V469.222H1V465.212H-1ZM-1 473.233V477.244H1V473.233H-1ZM-1 481.255V485.266H1V481.255H-1ZM-1 489.277V493.288H1V489.277H-1ZM-1 497.298V501.309H1V497.298H-1ZM-1 505.32V509.331H1V505.32H-1ZM-1 513.342V517.353H1V513.342H-1ZM-1 521.364V525.375H1V521.364H-1ZM-1 529.385V533.396H1V529.385H-1ZM-1 537.407V541.418H1V537.407H-1ZM-1 545.429V549.44H1V545.429H-1ZM-1 553.451V557.461H1V553.451H-1ZM-1 561.472V565.483H1V561.472H-1ZM-1 569.494V573.505H1V569.494H-1ZM-1 577.516V581.527H1V577.516H-1ZM-1 585.538V589.548H1V585.538H-1ZM-1 593.559V597.57H1V593.559H-1ZM-1 601.581V605.592H1V601.581H-1ZM-1 609.603V613.614H1V609.603H-1ZM-1 617.624V621.635H1V617.624H-1ZM-1 625.646V629.657H1V625.646H-1ZM-1 633.668V637.679H1V633.668H-1ZM-1 641.69V645.701H1V641.69H-1ZM-1 649.711V653.722H1V649.711H-1ZM-1 657.733V661.744H1V657.733H-1ZM-1 665.755V669.766H1V665.755H-1ZM-1 673.777V677.787H1V673.777H-1ZM-1 681.798V685.809H1V681.798H-1ZM-1 689.82V693.831H1V689.82H-1ZM-1 697.842V701.853H1V697.842H-1ZM-1 705.863V709.874H1V705.863H-1ZM-1 713.885V717.896H1V713.885H-1ZM-1 721.907V725.918H1V721.907H-1ZM-1 729.929V733.94H1V729.929H-1ZM-1 737.95V741.961H1V737.95H-1ZM-1 745.972V749.983H1V745.972H-1ZM-1 753.994V756H1V753.994H-1ZM-1 756C-1 756.628 -0.969505 757.249 -0.909864 757.862L1.08073 757.668C1.02735 757.12 1 756.563 1 756H-1ZM-0.186403 761.517C0.177821 762.719 0.657887 763.871 1.2407 764.959L3.00373 764.014C2.48244 763.041 2.05324 762.012 1.72768 760.937L-0.186403 761.517ZM3.31261 768.054C4.10238 769.015 4.98467 769.898 5.9459 770.687L7.21556 769.142C6.35496 768.435 5.565 767.645 4.85792 766.784L3.31261 768.054ZM9.04117 772.759C10.1293 773.342 11.2809 773.822 12.4831 774.186L13.063 772.272C11.9885 771.947 10.9587 771.518 9.98549 770.996L9.04117 772.759ZM16.1381 774.91C16.751 774.969 17.372 775 18 775V773C17.4368 773 16.8804 772.973 16.3318 772.919L16.1381 774.91ZM18 775H20.0049V773H18V775ZM24.0148 775H28.0246V773H24.0148V775ZM32.0345 775H36.0444V773H32.0345V775ZM40.0542 775H44.0641V773H40.0542V775ZM48.074 775H52.0839V773H48.074V775ZM56.0937 775H60.1036V773H56.0937V775ZM64.1135 775H68.1233V773H64.1135V775ZM72.1332 775H76.1431V773H72.1332V775ZM80.1529 775H84.1628V773H80.1529V775ZM88.1727 775H92.1825V773H88.1727V775ZM96.1924 775H100.202V773H96.1924V775ZM104.212 775H108.222V773H104.212V775ZM112.232 775H116.242V773H112.232V775ZM120.252 775H124.262V773H120.252V775ZM128.271 775H132.281V773H128.271V775ZM136.291 775H140.301V773H136.291V775ZM144.311 775H148.321V773H144.311V775ZM152.331 775H156.34V773H152.331V775ZM160.35 775H164.36V773H160.35V775ZM168.37 775H172.38V773H168.37V775ZM176.39 775H180.4V773H176.39V775ZM184.41 775H188.419V773H184.41V775ZM192.429 775H196.439V773H192.429V775ZM200.449 775H204.459V773H200.449V775ZM208.469 775H212.479V773H208.469V775ZM216.489 775H220.498V773H216.489V775ZM224.508 775H228.518V773H224.508V775ZM232.528 775H236.538V773H232.528V775ZM240.548 775H244.558V773H240.548V775ZM248.568 775H252.577V773H248.568V775ZM256.587 775H260.597V773H256.587V775ZM264.607 775H268.617V773H264.607V775ZM272.627 775H276.637V773H272.627V775ZM280.647 775H284.656V773H280.647V775ZM288.666 775H292.676V773H288.666V775ZM296.686 775H300.696V773H296.686V775ZM304.706 775H308.716V773H304.706V775ZM312.725 775H316.735V773H312.725V775ZM320.745 775H324.755V773H320.745V775ZM328.765 775H332.775V773H328.765V775ZM336.785 775H340.794V773H336.785V775ZM344.804 775H348.814V773H344.804V775ZM352.824 775H356.834V773H352.824V775ZM360.844 775H364.854V773H360.844V775ZM368.863 775H372.873V773H368.863V775ZM376.883 775H380.893V773H376.883V775ZM384.903 775H388.913V773H384.903V775ZM392.923 775H396.932V773H392.923V775ZM400.942 775H404.952V773H400.942V775ZM408.962 775H412.972V773H408.962V775ZM416.982 775H420.992V773H416.982V775ZM425.001 775H429.011V773H425.001V775ZM433.021 775H437.031V773H433.021V775ZM441.041 775H445.051V773H441.041V775ZM449.061 775H453.07V773H449.061V775ZM457.08 775H461.09V773H457.08V775ZM465.1 775H469.11V773H465.1V775ZM473.12 775H477.13V773H473.12V775ZM481.139 775H485.149V773H481.139V775ZM489.159 775H493.169V773H489.159V775ZM497.179 775H501.189V773H497.179V775ZM505.199 775H509.208V773H505.199V775ZM513.218 775H517.228V773H513.218V775ZM521.238 775H525.248V773H521.238V775ZM529.258 775H533.268V773H529.258V775ZM537.277 775H541.287V773H537.277V775ZM545.297 775H549.307V773H545.297V775ZM553.317 775H557.327V773H553.317V775ZM561.337 775H565.347V773H561.337V775ZM569.357 775H573.366V773H569.357V775ZM577.376 775H581.386V773H577.376V775ZM585.396 775H589.406V773H585.396V775ZM593.416 775H597.426V773H593.416V775ZM601.436 775H605.446V773H601.436V775ZM609.455 775H613.465V773H609.455V775ZM617.475 775H621.485V773H617.475V775ZM625.495 775H629.505V773H625.495V775ZM633.515 775H637.525V773H633.515V775ZM641.535 775H645.544V773H641.535V775ZM649.554 775H653.564V773H649.554V775ZM657.574 775H661.584V773H657.574V775ZM665.594 775H669.604V773H665.594V775ZM673.614 775H677.624V773H673.614V775ZM681.633 775H685.643V773H681.633V775ZM689.653 775H693.663V773H689.653V775ZM697.673 775H701.683V773H697.673V775ZM705.693 775H709.703V773H705.693V775ZM713.712 775H717.722V773H713.712V775ZM721.732 775H725.742V773H721.732V775ZM729.752 775H733.762V773H729.752V775ZM737.772 775H741.782V773H737.772V775ZM745.792 775H749.802V773H745.792V775ZM753.811 775H757.821V773H753.811V775ZM761.831 775H765.841V773H761.831V775ZM769.851 775H773.861V773H769.851V775ZM777.871 775H781.881V773H777.871V775ZM785.891 775H789.9V773H785.891V775ZM793.91 775H797.92V773H793.91V775ZM801.93 775H805.94V773H801.93V775ZM809.95 775H813.96V773H809.95V775ZM817.97 775H821.979V773H817.97V775ZM825.989 775H829.999V773H825.989V775ZM834.009 775H838.019V773H834.009V775ZM842.029 775H846.039V773H842.029V775ZM850.049 775H854.059V773H850.049V775ZM858.068 775H862.078V773H858.068V775ZM866.088 775H870.098V773H866.088V775ZM874.108 775H878.118V773H874.108V775ZM882.128 775H886.138V773H882.128V775ZM890.148 775H894.157V773H890.148V775ZM898.167 775H902.177V773H898.167V775ZM906.187 775H910.197V773H906.187V775ZM914.207 775H918.217V773H914.207V775ZM922.227 775H926.237V773H922.227V775ZM930.246 775H934.256V773H930.246V775ZM938.266 775H942.276V773H938.266V775ZM946.286 775H950.296V773H946.286V775ZM954.306 775H958.316V773H954.306V775ZM962.326 775H966.335V773H962.326V775ZM970.345 775H974.355V773H970.345V775ZM978.365 775H982.375V773H978.365V775ZM986.385 775H990.395V773H986.385V775ZM994.405 775H998.415V773H994.405V775ZM1002.42 775H1006.43V773H1002.42V775ZM1010.44 775H1014.45V773H1010.44V775ZM1018.46 775H1022.47V773H1018.46V775ZM1026.48 775H1030.49V773H1026.48V775ZM1034.5 775H1038.51V773H1034.5V775ZM1042.52 775H1046.53V773H1042.52V775ZM1050.54 775H1054.55V773H1050.54V775ZM1058.56 775H1062.57V773H1058.56V775ZM1066.58 775H1070.59V773H1066.58V775ZM1074.6 775H1078.61V773H1074.6V775ZM1082.62 775H1086.63V773H1082.62V775ZM1090.64 775H1094.65V773H1090.64V775ZM1098.66 775H1102.67V773H1098.66V775ZM1106.68 775H1110.69V773H1106.68V775ZM1114.7 775H1118.71V773H1114.7V775ZM1122.72 775H1126.73V773H1122.72V775ZM1130.74 775H1134.75V773H1130.74V775ZM1138.76 775H1142.77V773H1138.76V775ZM1146.78 775H1150.79V773H1146.78V775ZM1154.8 775H1158.81V773H1154.8V775ZM1162.82 775H1166.83V773H1162.82V775ZM1170.84 775H1174.85V773H1170.84V775ZM1178.86 775H1182.87V773H1178.86V775ZM1186.88 775H1190.89V773H1186.88V775ZM1194.9 775H1198.91V773H1194.9V775ZM1202.92 775H1206.93V773H1202.92V775ZM1210.94 775H1214.95V773H1210.94V775ZM1218.96 775H1222.97V773H1218.96V775ZM1226.98 775H1230.99V773H1226.98V775ZM1235 775H1237V773H1235V775ZM1237 775C1237.63 775 1238.25 774.969 1238.86 774.91L1238.67 772.919C1238.12 772.973 1237.56 773 1237 773V775ZM1242.52 774.186C1243.72 773.822 1244.87 773.342 1245.96 772.759L1245.01 770.996C1244.04 771.518 1243.01 771.947 1241.94 772.272L1242.52 774.186ZM1249.05 770.687C1250.02 769.898 1250.9 769.015 1251.69 768.054L1250.14 766.784C1249.43 767.645 1248.65 768.435 1247.78 769.142L1249.05 770.687ZM1253.76 764.959C1254.34 763.871 1254.82 762.719 1255.19 761.517L1253.27 760.937C1252.95 762.012 1252.52 763.041 1252 764.014L1253.76 764.959ZM1255.91 757.862C1255.97 757.249 1256 756.628 1256 756H1254C1254 756.563 1253.97 757.12 1253.92 757.668L1255.91 757.862ZM1256 756V753.995H1254V756H1256ZM1256 749.984V745.973H1254V749.984H1256ZM1256 741.962V737.951H1254V741.962H1256ZM1256 733.94V729.929H1254V733.94H1256ZM1256 725.918V721.908H1254V725.918H1256ZM1256 717.897V713.886H1254V717.897H1256ZM1256 709.875V705.864H1254V709.875H1256ZM1256 701.853V697.842H1254V701.853H1256ZM1256 693.832V689.821H1254V693.832H1256ZM1256 685.81V681.799H1254V685.81H1256ZM1256 677.788V673.777H1254V677.788H1256ZM1256 669.766V665.755H1254V669.766H1256ZM1256 661.745V657.734H1254V661.745H1256ZM1256 653.723V649.712H1254V653.723H1256ZM1256 645.701V641.69H1254V645.701H1256ZM1256 637.679V633.668H1254V637.679H1256ZM1256 629.658V625.647H1254V629.658H1256ZM1256 621.636V617.625H1254V621.636H1256ZM1256 613.614V609.603H1254V613.614H1256ZM1256 605.592V601.582H1254V605.592H1256ZM1256 597.571V593.56H1254V597.571H1256ZM1256 589.549V585.538H1254V589.549H1256ZM1256 581.527V577.516H1254V581.527H1256ZM1256 573.505V569.495H1254V573.505H1256ZM1256 565.484V561.473H1254V565.484H1256ZM1256 557.462V553.451H1254V557.462H1256ZM1256 549.44V545.429H1254V549.44H1256ZM1256 541.419V537.408H1254V541.419H1256ZM1256 533.397V529.386H1254V533.397H1256ZM1256 525.375V521.364H1254V525.375H1256ZM1256 517.353V513.343H1254V517.353H1256ZM1256 509.332V505.321H1254V509.332H1256ZM1256 501.31V497.299H1254V501.31H1256ZM1256 493.288V489.277H1254V493.288H1256ZM1256 485.266V481.256H1254V485.266H1256ZM1256 477.245V473.234H1254V477.245H1256ZM1256 469.223V465.212H1254V469.223H1256ZM1256 461.201V457.19H1254V461.201H1256ZM1256 453.18V449.169H1254V453.18H1256ZM1256 445.158V441.147H1254V445.158H1256ZM1256 437.136V433.125H1254V437.136H1256ZM1256 429.114V425.103H1254V429.114H1256ZM1256 421.093V417.082H1254V421.093H1256ZM1256 413.071V409.06H1254V413.071H1256ZM1256 405.049V401.038H1254V405.049H1256ZM1256 397.027V393.017H1254V397.027H1256ZM1256 389.006V384.995H1254V389.006H1256ZM1256 380.984V376.973H1254V380.984H1256ZM1256 372.962V368.951H1254V372.962H1256ZM1256 364.941V360.93H1254V364.941H1256ZM1256 356.919V352.908H1254V356.919H1256ZM1256 348.897V344.886H1254V348.897H1256ZM1256 340.875V336.864H1254V340.875H1256ZM1256 332.854V328.843H1254V332.854H1256ZM1256 324.832V320.821H1254V324.832H1256ZM1256 316.81V312.799H1254V316.81H1256ZM1256 308.788V304.778H1254V308.788H1256ZM1256 300.767V296.756H1254V300.767H1256ZM1256 292.745V288.734H1254V292.745H1256ZM1256 284.723V280.712H1254V284.723H1256ZM1256 276.702V272.691H1254V276.702H1256ZM1256 268.68V264.669H1254V268.68H1256ZM1256 260.658V256.647H1254V260.658H1256ZM1256 252.636V248.625H1254V252.636H1256ZM1256 244.615V240.604H1254V244.615H1256ZM1256 236.593V232.582H1254V236.593H1256ZM1256 228.571V224.56H1254V228.571H1256ZM1256 220.549V216.539H1254V220.549H1256ZM1256 212.528V208.517H1254V212.528H1256ZM1256 204.506V200.495H1254V204.506H1256ZM1256 196.484V192.473H1254V196.484H1256ZM1256 188.462V184.452H1254V188.462H1256ZM1256 180.441V176.43H1254V180.441H1256ZM1256 172.419V168.408H1254V172.419H1256ZM1256 164.397V160.386H1254V164.397H1256ZM1256 156.376V152.365H1254V156.376H1256ZM1256 148.354V144.343H1254V148.354H1256ZM1256 140.332V136.321H1254V140.332H1256ZM1256 132.31V128.3H1254V132.31H1256ZM1256 124.289V120.278H1254V124.289H1256ZM1256 116.267V112.256H1254V116.267H1256ZM1256 108.245V104.234H1254V108.245H1256ZM1256 100.223V96.2126H1254V100.223H1256ZM1256 92.2017V88.1909H1254V92.2017H1256ZM1256 84.18V80.1691H1254V84.18H1256ZM1256 76.1582V72.1474H1254V76.1582H1256ZM1256 68.1366V64.1257H1254V68.1366H1256ZM1256 60.1148V56.1039H1254V60.1148H1256ZM1256 52.0931V48.0822H1254V52.0931H1256ZM1256 44.0713V40.0605H1254V44.0713H1256ZM1256 36.0496V32.0388H1254V36.0496H1256ZM1256 28.0279V24.017H1254V28.0279H1256ZM1256 20.0062V18H1254V20.0062H1256ZM1256 18C1256 17.3721 1255.97 16.751 1255.91 16.1381L1253.92 16.3319C1253.97 16.8804 1254 17.4369 1254 18H1256ZM1255.19 12.4831C1254.82 11.281 1254.34 10.1293 1253.76 9.04119L1252 9.9855C1252.52 10.9588 1252.95 11.9885 1253.27 13.0631L1255.19 12.4831ZM1251.69 5.94591C1250.9 4.98467 1250.02 4.10239 1249.05 3.31262L1247.78 4.85793C1248.65 5.56501 1249.43 6.35497 1250.14 7.21557L1251.69 5.94591ZM1245.96 1.2407C1244.87 0.657885 1243.72 0.177818 1242.52 -0.186406L1241.94 1.72767C1243.01 2.05324 1244.04 2.48243 1245.01 3.00373L1245.96 1.2407ZM1238.86 -0.909865C1238.25 -0.969506 1237.63 -1 1237 -1V1C1237.56 1 1238.12 1.02735 1238.67 1.08073L1238.86 -0.909865ZM1237 -1H1235V1H1237V-1ZM1230.99 -1H1226.98V1H1230.99V-1ZM1222.97 -1H1218.96V1H1222.97V-1ZM1214.95 -1H1210.94V1H1214.95V-1ZM1206.93 -1H1202.92V1H1206.93V-1ZM1198.91 -1H1194.9V1H1198.91V-1ZM1190.89 -1H1186.88V1H1190.89V-1ZM1182.87 -1H1178.86V1H1182.87V-1ZM1174.85 -1H1170.84V1H1174.85V-1ZM1166.83 -1H1162.82V1H1166.83V-1ZM1158.81 -1H1154.8V1H1158.81V-1ZM1150.79 -1H1146.78V1H1150.79V-1ZM1142.77 -1H1138.76V1H1142.77V-1ZM1134.75 -1H1130.74V1H1134.75V-1ZM1126.73 -1H1122.72V1H1126.73V-1ZM1118.71 -1H1114.7V1H1118.71V-1ZM1110.69 -1H1106.68V1H1110.69V-1ZM1102.67 -1H1098.66V1H1102.67V-1ZM1094.65 -1H1090.64V1H1094.65V-1ZM1086.63 -1H1082.62V1H1086.63V-1ZM1078.61 -1H1074.6V1H1078.61V-1ZM1070.59 -1H1066.58V1H1070.59V-1ZM1062.57 -1H1058.56V1H1062.57V-1ZM1054.55 -1H1050.54V1H1054.55V-1ZM1046.53 -1H1042.52V1H1046.53V-1ZM1038.51 -1H1034.5V1H1038.51V-1ZM1030.49 -1H1026.48V1H1030.49V-1ZM1022.47 -1H1018.46V1H1022.47V-1ZM1014.45 -1H1010.44V1H1014.45V-1ZM1006.43 -1H1002.42V1H1006.43V-1ZM998.413 -1H994.403V1H998.413V-1ZM990.393 -1H986.383V1H990.393V-1ZM982.373 -1H978.363V1H982.373V-1ZM974.353 -1H970.344V1H974.353V-1ZM966.334 -1H962.324V1H966.334V-1ZM958.314 -1H954.304V1H958.314V-1ZM950.294 -1H946.284V1H950.294V-1ZM942.275 -1H938.265V1H942.275V-1ZM934.255 -1H930.245V1H934.255V-1ZM926.235 -1H922.225V1H926.235V-1ZM918.215 -1H914.206V1H918.215V-1ZM910.196 -1H906.186V1H910.196V-1ZM902.176 -1H898.166V1H902.176V-1ZM894.156 -1H890.146V1H894.156V-1ZM886.137 -1H882.127V1H886.137V-1ZM878.117 -1H874.107V1H878.117V-1ZM870.097 -1H866.087V1H870.097V-1ZM862.077 -1H858.068V1H862.077V-1ZM854.058 -1H850.048V1H854.058V-1ZM846.038 -1H842.028V1H846.038V-1ZM838.018 -1H834.008V1H838.018V-1ZM829.999 -1H825.989V1H829.999V-1ZM821.979 -1H817.969V1H821.979V-1ZM813.959 -1H809.949V1H813.959V-1ZM805.939 -1H801.93V1H805.939V-1ZM797.92 -1H793.91V1H797.92V-1ZM789.9 -1H785.89V1H789.9V-1ZM781.88 -1H777.87V1H781.88V-1ZM773.861 -1H769.851V1H773.861V-1ZM765.841 -1H761.831V1H765.841V-1ZM757.821 -1H753.811V1H757.821V-1ZM749.801 -1H745.792V1H749.801V-1ZM741.782 -1H737.772V1H741.782V-1ZM733.762 -1H729.752V1H733.762V-1ZM725.742 -1H721.732V1H725.742V-1ZM717.723 -1H713.713V1H717.723V-1ZM709.703 -1H705.693V1H709.703V-1ZM701.683 -1H697.673V1H701.683V-1ZM693.663 -1H689.653V1H693.663V-1ZM685.643 -1H681.634V1H685.643V-1ZM677.624 -1H673.614V1H677.624V-1ZM669.604 -1H665.594V1H669.604V-1ZM661.584 -1H657.574V1H661.584V-1ZM653.564 -1H649.554V1H653.564V-1ZM645.545 -1H641.535V1H645.545V-1ZM637.525 -1H633.515V1H637.525V-1ZM629.505 -1H625.495V1H629.505V-1ZM621.485 -1H617.475V1H621.485V-1ZM613.465 -1H609.456V1H613.465V-1ZM605.446 -1H601.436V1H605.446V-1ZM597.426 -1H593.416V1H597.426V-1ZM589.406 -1H585.396V1H589.406V-1ZM581.386 -1H577.376V1H581.386V-1ZM573.367 -1H569.357V1H573.367V-1ZM565.347 -1H561.337V1H565.347V-1ZM557.327 -1H553.317V1H557.327V-1ZM549.307 -1H545.297V1H549.307V-1ZM541.287 -1H537.278V1H541.287V-1ZM533.268 -1H529.258V1H533.268V-1ZM525.248 -1H521.238V1H525.248V-1ZM517.228 -1H513.218V1H517.228V-1ZM509.208 -1H505.198V1H509.208V-1ZM501.189 -1H497.179V1H501.189V-1ZM493.169 -1H489.159V1H493.169V-1ZM485.149 -1H481.139V1H485.149V-1ZM477.129 -1H473.119V1H477.129V-1ZM469.109 -1H465.1V1H469.109V-1ZM461.09 -1H457.08V1H461.09V-1ZM453.07 -1H449.06V1H453.07V-1ZM445.05 -1H441.04V1H445.05V-1ZM437.03 -1H433.021V1H437.03V-1ZM429.011 -1H425.001V1H429.011V-1ZM420.991 -1H416.981V1H420.991V-1ZM412.971 -1H408.961V1H412.971V-1ZM404.951 -1H400.941V1H404.951V-1ZM396.931 -1H392.922V1H396.931V-1ZM388.912 -1H384.902V1H388.912V-1ZM380.892 -1H376.882V1H380.892V-1ZM372.872 -1H368.862V1H372.872V-1ZM364.852 -1H360.843V1H364.852V-1ZM356.833 -1H352.823V1H356.833V-1ZM348.813 -1H344.803V1H348.813V-1ZM340.793 -1H336.783V1H340.793V-1ZM332.773 -1H328.763V1H332.773V-1ZM324.754 -1H320.744V1H324.754V-1ZM316.734 -1H312.724V1H316.734V-1ZM308.714 -1H304.704V1H308.714V-1ZM300.694 -1H296.684V1H300.694V-1ZM292.674 -1H288.665V1H292.674V-1ZM284.655 -1H280.645V1H284.655V-1ZM276.635 -1H272.625V1H276.635V-1ZM268.615 -1H264.605V1H268.615V-1ZM260.595 -1H256.585V1H260.595V-1ZM252.576 -1H248.566V1H252.576V-1ZM244.556 -1H240.546V1H244.556V-1ZM236.536 -1H232.526V1H236.536V-1ZM228.516 -1H224.506V1H228.516V-1ZM220.496 -1H216.487V1H220.496V-1ZM212.477 -1H208.467V1H212.477V-1ZM204.457 -1H200.447V1H204.457V-1ZM196.437 -1H192.427V1H196.437V-1ZM188.417 -1H184.407V1H188.417V-1ZM180.398 -1H176.388V1H180.398V-1ZM172.378 -1H168.368V1H172.378V-1ZM164.358 -1H160.348V1H164.358V-1ZM156.338 -1H152.328V1H156.338V-1ZM148.318 -1H144.309V1H148.318V-1ZM140.299 -1H136.289V1H140.299V-1ZM132.279 -1H128.269V1H132.279V-1ZM124.259 -1H120.249V1H124.259V-1ZM116.239 -1H112.23V1H116.239V-1ZM108.22 -1H104.21V1H108.22V-1ZM100.2 -1H96.19V1H100.2V-1ZM92.18 -1H88.1702V1H92.18V-1ZM84.1602 -1H80.1504V1H84.1602V-1ZM76.1405 -1H72.1306V1H76.1405V-1ZM68.1207 -1H64.1108V1H68.1207V-1ZM60.101 -1H56.0911V1H60.101V-1ZM52.0812 -1H48.0713V1H52.0812V-1ZM44.0614 -1H40.0515V1H44.0614V-1ZM36.0416 -1H32.0317V1H36.0416V-1ZM28.0219 -1H24.0119V1H28.0219V-1ZM20.0021 -1H18V1H20.0021V-1ZM18 -1C17.3721 -1 16.751 -0.969505 16.1381 -0.909864L16.3319 1.08073C16.8804 1.02735 17.4369 1 18 1V-1ZM12.4831 -0.186401C11.281 0.177825 10.1293 0.657893 9.04119 1.24071L9.98551 3.00374C10.9588 2.48244 11.9885 2.05325 13.0631 1.72768L12.4831 -0.186401ZM5.94592 3.31263C4.98468 4.1024 4.10239 4.98469 3.31262 5.94592L4.85793 7.21558C5.56501 6.35498 6.35498 5.56502 7.21557 4.85794L5.94592 3.31263ZM1.2407 9.0412C0.657891 10.1293 0.177823 11.281 -0.186402 12.4832L1.72768 13.0631C2.05325 11.9885 2.48244 10.9588 3.00373 9.98551L1.2407 9.0412ZM-0.909864 16.1382C-0.969505 16.751 -1 17.3721 -1 18H1C1 17.4369 1.02735 16.8804 1.08073 16.3319L-0.909864 16.1382ZM722 42V43.9885H724V42H722ZM722 47.9655V51.9425H724V47.9655H722ZM722 55.9195V59.8965H724V55.9195H722ZM722 63.8736V67.8506H724V63.8736H722ZM722 71.8276V75.8046H724V71.8276H722ZM722 79.7816V83.7586H724V79.7816H722ZM722 87.7356V91.7126H724V87.7356H722ZM722 95.6897V99.6667H724V95.6897H722ZM722 103.644V107.621H724V103.644H722ZM722 111.598V115.575H724V111.598H722ZM722 119.552V123.529H724V119.552H722ZM722 127.506V131.483H724V127.506H722ZM722 135.46V139.437H724V135.46H722ZM722 143.414V147.391H724V143.414H722ZM722 151.368V155.345H724V151.368H722ZM722 159.322V163.299H724V159.322H722ZM722 167.276V171.253H724V167.276H722ZM722 175.23V179.207H724V175.23H722ZM722 183.184V187.161H724V183.184H722ZM722 191.138V195.115H724V191.138H722ZM722 199.092V203.069H724V199.092H722ZM722 207.046V211.023H724V207.046H722ZM722 215V218.977H724V215H722ZM722 222.954V226.931H724V222.954H722ZM722 230.908V234.885H724V230.908H722ZM722 238.862V242.839H724V238.862H722ZM722 246.816V250.793H724V246.816H722ZM722 254.77V258.747H724V254.77H722ZM722 262.724V266.701H724V262.724H722ZM722 270.678V274.655H724V270.678H722ZM722 278.632V282.609H724V278.632H722ZM722 286.586V290.563H724V286.586H722ZM722 294.54V298.517H724V294.54H722ZM722 302.494V306.471H724V302.494H722ZM722 310.448V314.425H724V310.448H722ZM722 318.402V322.379H724V318.402H722ZM722 326.356V330.333H724V326.356H722ZM722 334.31V338.287H724V334.31H722ZM722 342.264V346.241H724V342.264H722ZM722 350.218V354.195H724V350.218H722ZM722 358.172V362.149H724V358.172H722ZM722 366.126V370.103H724V366.126H722ZM722 374.08V378.057H724V374.08H722ZM722 382.034V386.012H724V382.034H722ZM722 389.989V393.966H724V389.989H722ZM722 397.943V401.92H724V397.943H722ZM722 405.897V409.874H724V405.897H722ZM722 413.851V417.828H724V413.851H722ZM722 421.805V425.782H724V421.805H722ZM722 429.759V433.736H724V429.759H722ZM722 437.713V441.69H724V437.713H722ZM722 445.667V449.644H724V445.667H722ZM722 453.621V457.598H724V453.621H722ZM722 461.575V465.552H724V461.575H722ZM722 469.529V473.506H724V469.529H722ZM722 477.483V481.46H724V477.483H722ZM722 485.437V489.414H724V485.437H722ZM722 493.391V497.368H724V493.391H722ZM722 501.345V505.322H724V501.345H722ZM722 509.299V513.276H724V509.299H722ZM722 517.253V521.23H724V517.253H722ZM722 525.207V529.184H724V525.207H722ZM722 533.161V537.138H724V533.161H722ZM722 541.115V545.092H724V541.115H722ZM722 549.069V553.046H724V549.069H722ZM722 557.023V561H724V557.023H722ZM722 564.977V568.954H724V564.977H722ZM722 572.931V576.908H724V572.931H722ZM722 580.885V584.862H724V580.885H722ZM722 588.839V592.816H724V588.839H722ZM722 596.793V600.77H724V596.793H722ZM722 604.747V608.724H724V604.747H722ZM722 612.701V616.678H724V612.701H722ZM722 620.655V624.632H724V620.655H722ZM722 628.609V632.586H724V628.609H722ZM722 636.563V640.54H724V636.563H722ZM722 644.517V648.494H724V644.517H722ZM722 652.471V656.448H724V652.471H722ZM722 660.425V664.402H724V660.425H722ZM722 668.379V672.356H724V668.379H722ZM722 676.333V680.31H724V676.333H722ZM722 684.287V688.264H724V684.287H722ZM722 692.241V696.218H724V692.241H722ZM722 700.195V704.172H724V700.195H722ZM722 708.149V712.126H724V708.149H722ZM722 716.103V720.08H724V716.103H722ZM722 724.057V728.034H724V724.057H722ZM722 732.011V734H724V732.011H722ZM723 735H724.983V733H723V735ZM728.948 735H732.914V733H728.948V735ZM736.879 735H740.845V733H736.879V735ZM744.81 735H748.776V733H744.81V735ZM752.741 735H756.707V733H752.741V735ZM760.672 735H764.638V733H760.672V735ZM768.603 735H772.569V733H768.603V735ZM776.534 735H780.5V733H776.534V735ZM784.466 735H788.431V733H784.466V735ZM792.397 735H796.362V733H792.397V735ZM800.328 735H804.293V733H800.328V735ZM808.259 735H812.224V733H808.259V735ZM816.19 735H820.155V733H816.19V735ZM824.121 735H828.086V733H824.121V735ZM832.052 735H836.017V733H832.052V735ZM839.983 735H843.948V733H839.983V735ZM847.914 735H851.879V733H847.914V735ZM855.845 735H859.81V733H855.845V735ZM863.776 735H867.741V733H863.776V735ZM871.707 735H875.672V733H871.707V735ZM879.638 735H883.603V733H879.638V735ZM887.569 735H891.534V733H887.569V735ZM895.5 735H899.465V733H895.5V735ZM903.431 735H907.396V733H903.431V735ZM911.362 735H915.328V733H911.362V735ZM919.293 735H923.259V733H919.293V735ZM927.224 735H931.19V733H927.224V735ZM935.155 735H939.121V733H935.155V735ZM943.086 735H947.052V733H943.086V735ZM951.017 735H954.983V733H951.017V735ZM958.948 735H962.914V733H958.948V735ZM966.879 735H970.845V733H966.879V735ZM974.81 735H978.776V733H974.81V735ZM982.741 735H986.707V733H982.741V735ZM990.672 735H994.638V733H990.672V735ZM998.603 735H1002.57V733H998.603V735ZM1006.53 735H1010.5V733H1006.53V735ZM1014.47 735H1018.43V733H1014.47V735ZM1022.4 735H1026.36V733H1022.4V735ZM1030.33 735H1034.29V733H1030.33V735ZM1038.26 735H1042.22V733H1038.26V735ZM1046.19 735H1050.16V733H1046.19V735ZM1054.12 735H1058.09V733H1054.12V735ZM1062.05 735H1066.02V733H1062.05V735ZM1069.98 735H1073.95V733H1069.98V735ZM1077.91 735H1081.88V733H1077.91V735ZM1085.84 735H1089.81V733H1085.84V735ZM1093.78 735H1097.74V733H1093.78V735ZM1101.71 735H1105.67V733H1101.71V735ZM1109.64 735H1113.6V733H1109.64V735ZM1117.57 735H1121.53V733H1117.57V735ZM1125.5 735H1129.47V733H1125.5V735ZM1133.43 735H1137.4V733H1133.43V735ZM1141.36 735H1145.33V733H1141.36V735ZM1149.29 735H1153.26V733H1149.29V735ZM1157.22 735H1161.19V733H1157.22V735ZM1165.16 735H1169.12V733H1165.16V735ZM1173.09 735H1177.05V733H1173.09V735ZM1181.02 735H1183V733H1181.02V735ZM1184 734V732.011H1182V734H1184ZM1184 728.034V724.057H1182V728.034H1184ZM1184 720.08V716.103H1182V720.08H1184ZM1184 712.126V708.149H1182V712.126H1184ZM1184 704.172V700.195H1182V704.172H1184ZM1184 696.218V692.241H1182V696.218H1184ZM1184 688.264V684.287H1182V688.264H1184ZM1184 680.31V676.333H1182V680.31H1184ZM1184 672.356V668.379H1182V672.356H1184ZM1184 664.402V660.425H1182V664.402H1184ZM1184 656.448V652.471H1182V656.448H1184ZM1184 648.494V644.517H1182V648.494H1184ZM1184 640.54V636.563H1182V640.54H1184ZM1184 632.586V628.609H1182V632.586H1184ZM1184 624.632V620.655H1182V624.632H1184ZM1184 616.678V612.701H1182V616.678H1184ZM1184 608.724V604.747H1182V608.724H1184ZM1184 600.77V596.793H1182V600.77H1184ZM1184 592.816V588.839H1182V592.816H1184ZM1184 584.862V580.885H1182V584.862H1184ZM1184 576.908V572.931H1182V576.908H1184ZM1184 568.954V564.977H1182V568.954H1184ZM1184 561V557.023H1182V561H1184ZM1184 553.046V549.069H1182V553.046H1184ZM1184 545.092V541.115H1182V545.092H1184ZM1184 537.138V533.161H1182V537.138H1184ZM1184 529.184V525.207H1182V529.184H1184ZM1184 521.23V517.253H1182V521.23H1184ZM1184 513.276V509.299H1182V513.276H1184ZM1184 505.322V501.345H1182V505.322H1184ZM1184 497.368V493.391H1182V497.368H1184ZM1184 489.414V485.437H1182V489.414H1184ZM1184 481.46V477.483H1182V481.46H1184ZM1184 473.506V469.529H1182V473.506H1184ZM1184 465.552V461.575H1182V465.552H1184ZM1184 457.598V453.621H1182V457.598H1184ZM1184 449.644V445.667H1182V449.644H1184ZM1184 441.69V437.713H1182V441.69H1184ZM1184 433.736V429.759H1182V433.736H1184ZM1184 425.782V421.805H1182V425.782H1184ZM1184 417.828V413.851H1182V417.828H1184ZM1184 409.874V405.897H1182V409.874H1184ZM1184 401.92V397.943H1182V401.92H1184ZM1184 393.966V389.988H1182V393.966H1184ZM1184 386.011V382.034H1182V386.011H1184ZM1184 378.057V374.08H1182V378.057H1184ZM1184 370.103V366.126H1182V370.103H1184ZM1184 362.149V358.172H1182V362.149H1184ZM1184 354.195V350.218H1182V354.195H1184ZM1184 346.241V342.264H1182V346.241H1184ZM1184 338.287V334.31H1182V338.287H1184ZM1184 330.333V326.356H1182V330.333H1184ZM1184 322.379V318.402H1182V322.379H1184ZM1184 314.425V310.448H1182V314.425H1184ZM1184 306.471V302.494H1182V306.471H1184ZM1184 298.517V294.54H1182V298.517H1184ZM1184 290.563V286.586H1182V290.563H1184ZM1184 282.609V278.632H1182V282.609H1184ZM1184 274.655V270.678H1182V274.655H1184ZM1184 266.701V262.724H1182V266.701H1184ZM1184 258.747V254.77H1182V258.747H1184ZM1184 250.793V246.816H1182V250.793H1184ZM1184 242.839V238.862H1182V242.839H1184ZM1184 234.885V230.908H1182V234.885H1184ZM1184 226.931V222.954H1182V226.931H1184ZM1184 218.977V215H1182V218.977H1184ZM1184 211.023V207.046H1182V211.023H1184ZM1184 203.069V199.092H1182V203.069H1184ZM1184 195.115V191.138H1182V195.115H1184ZM1184 187.161V183.184H1182V187.161H1184ZM1184 179.207V175.23H1182V179.207H1184ZM1184 171.253V167.276H1182V171.253H1184ZM1184 163.299V159.322H1182V163.299H1184ZM1184 155.345V151.368H1182V155.345H1184ZM1184 147.391V143.414H1182V147.391H1184ZM1184 139.437V135.46H1182V139.437H1184ZM1184 131.483V127.506H1182V131.483H1184ZM1184 123.529V119.552H1182V123.529H1184ZM1184 115.575V111.598H1182V115.575H1184ZM1184 107.621V103.644H1182V107.621H1184ZM1184 99.6669V95.6899H1182V99.6669H1184ZM1184 91.7129V87.736H1182V91.7129H1184ZM1184 83.759V79.782H1182V83.759H1184ZM1184 75.805V71.828H1182V75.805H1184ZM1184 67.851V63.874H1182V67.851H1184ZM1184 59.897V55.92H1182V59.897H1184ZM1184 51.9431V47.966H1182V51.9431H1184ZM1184 43.9891V42H1182V43.9891H1184ZM1183 41H1181.02V43H1183V41ZM1177.05 41H1173.09V43H1177.05V41ZM1169.12 41H1165.16V43H1169.12V41ZM1161.19 41H1157.22V43H1161.19V41ZM1153.26 41H1149.29V43H1153.26V41ZM1145.33 41H1141.36V43H1145.33V41ZM1137.4 41H1133.43V43H1137.4V41ZM1129.47 41H1125.5V43H1129.47V41ZM1121.53 41H1117.57V43H1121.53V41ZM1113.6 41H1109.64V43H1113.6V41ZM1105.67 41H1101.71V43H1105.67V41ZM1097.74 41H1093.78V43H1097.74V41ZM1089.81 41H1085.84V43H1089.81V41ZM1081.88 41H1077.91V43H1081.88V41ZM1073.95 41H1069.98V43H1073.95V41ZM1066.02 41H1062.05V43H1066.02V41ZM1058.09 41H1054.12V43H1058.09V41ZM1050.16 41H1046.19V43H1050.16V41ZM1042.22 41H1038.26V43H1042.22V41ZM1034.29 41H1030.33V43H1034.29V41ZM1026.36 41H1022.4V43H1026.36V41ZM1018.43 41H1014.47V43H1018.43V41ZM1010.5 41H1006.53V43H1010.5V41ZM1002.57 41H998.604V43H1002.57V41ZM994.638 41H990.672V43H994.638V41ZM986.707 41H982.741V43H986.707V41ZM978.776 41H974.81V43H978.776V41ZM970.845 41H966.879V43H970.845V41ZM962.914 41H958.948V43H962.914V41ZM954.983 41H951.017V43H954.983V41ZM947.052 41H943.086V43H947.052V41ZM939.121 41H935.155V43H939.121V41ZM931.19 41H927.224V43H931.19V41ZM923.259 41H919.293V43H923.259V41ZM915.328 41H911.362V43H915.328V41ZM907.397 41H903.431V43H907.397V41ZM899.466 41H895.5V43H899.466V41ZM891.535 41H887.569V43H891.535V41ZM883.604 41H879.638V43H883.604V41ZM875.673 41H871.707V43H875.673V41ZM867.742 41H863.776V43H867.742V41ZM859.81 41H855.845V43H859.81V41ZM851.879 41H847.914V43H851.879V41ZM843.948 41H839.983V43H843.948V41ZM836.017 41H832.052V43H836.017V41ZM828.086 41H824.121V43H828.086V41ZM820.155 41H816.19V43H820.155V41ZM812.224 41H808.259V43H812.224V41ZM804.293 41H800.328V43H804.293V41ZM796.362 41H792.397V43H796.362V41ZM788.431 41H784.466V43H788.431V41ZM780.5 41H776.535V43H780.5V41ZM772.569 41H768.604V43H772.569V41ZM764.638 41H760.673V43H764.638V41ZM756.707 41H752.742V43H756.707V41ZM748.776 41H744.811V43H748.776V41ZM740.845 41H736.88V43H740.845V41ZM732.914 41H728.948V43H732.914V41ZM724.983 41H723V43H724.983V41ZM723 42V40H721V42H723ZM1183 42H1185V40H1183V42ZM723 734H721V736H723V734ZM1183 734V736H1185V734H1183ZM-2 18V20.0054H2V18H-2ZM-2 24.0163V28.0272H2V24.0163H-2ZM-2 32.0381V36.0489H2V32.0381H-2ZM-2 40.0598V44.0707H2V40.0598H-2ZM-2 48.0815V52.0924H2V48.0815H-2ZM-2 56.1033V60.1141H2V56.1033H-2ZM-2 64.125V68.1359H2V64.125H-2ZM-2 72.1467V76.1576H2V72.1467H-2ZM-2 80.1685V84.1793H2V80.1685H-2ZM-2 88.1902V92.2011H2V88.1902H-2ZM-2 96.212V100.223H2V96.212H-2ZM-2 104.234V108.245H2V104.234H-2ZM-2 112.255V116.266H2V112.255H-2ZM-2 120.277V124.288H2V120.277H-2ZM-2 128.299V132.31H2V128.299H-2ZM-2 136.321V140.332H2V136.321H-2ZM-2 144.342V148.353H2V144.342H-2ZM-2 152.364V156.375H2V152.364H-2ZM-2 160.386V164.397H2V160.386H-2ZM-2 168.408V172.418H2V168.408H-2ZM-2 176.429V180.44H2V176.429H-2ZM-2 184.451V188.462H2V184.451H-2ZM-2 192.473V196.484H2V192.473H-2ZM-2 200.495V204.505H2V200.495H-2ZM-2 208.516V212.527H2V208.516H-2ZM-2 216.538V220.549H2V216.538H-2ZM-2 224.56V228.571H2V224.56H-2ZM-2 232.581V236.592H2V232.581H-2ZM-2 240.603V244.614H2V240.603H-2ZM-2 248.625V252.636H2V248.625H-2ZM-2 256.647V260.658H2V256.647H-2ZM-2 264.668V268.679H2V264.668H-2ZM-2 272.69V276.701H2V272.69H-2ZM-2 280.712V284.723H2V280.712H-2ZM-2 288.734V292.744H2V288.734H-2ZM-2 296.755V300.766H2V296.755H-2ZM-2 304.777V308.788H2V304.777H-2ZM-2 312.799V316.81H2V312.799H-2ZM-2 320.82V324.831H2V320.82H-2ZM-2 328.842V332.853H2V328.842H-2ZM-2 336.864V340.875H2V336.864H-2ZM-2 344.886V348.897H2V344.886H-2ZM-2 352.907V356.918H2V352.907H-2ZM-2 360.929V364.94H2V360.929H-2ZM-2 368.951V372.962H2V368.951H-2ZM-2 376.973V380.983H2V376.973H-2ZM-2 384.994V389.005H2V384.994H-2ZM-2 393.016V397.027H2V393.016H-2ZM-2 401.038V405.049H2V401.038H-2ZM-2 409.059V413.07H2V409.059H-2ZM-2 417.081V421.092H2V417.081H-2ZM-2 425.103V429.114H2V425.103H-2ZM-2 433.125V437.136H2V433.125H-2ZM-2 441.146V445.157H2V441.146H-2ZM-2 449.168V453.179H2V449.168H-2ZM-2 457.19V461.201H2V457.19H-2ZM-2 465.212V469.222H2V465.212H-2ZM-2 473.233V477.244H2V473.233H-2ZM-2 481.255V485.266H2V481.255H-2ZM-2 489.277V493.288H2V489.277H-2ZM-2 497.298V501.309H2V497.298H-2ZM-2 505.32V509.331H2V505.32H-2ZM-2 513.342V517.353H2V513.342H-2ZM-2 521.364V525.375H2V521.364H-2ZM-2 529.385V533.396H2V529.385H-2ZM-2 537.407V541.418H2V537.407H-2ZM-2 545.429V549.44H2V545.429H-2ZM-2 553.451V557.461H2V553.451H-2ZM-2 561.472V565.483H2V561.472H-2ZM-2 569.494V573.505H2V569.494H-2ZM-2 577.516V581.527H2V577.516H-2ZM-2 585.538V589.548H2V585.538H-2ZM-2 593.559V597.57H2V593.559H-2ZM-2 601.581V605.592H2V601.581H-2ZM-2 609.603V613.614H2V609.603H-2ZM-2 617.624V621.635H2V617.624H-2ZM-2 625.646V629.657H2V625.646H-2ZM-2 633.668V637.679H2V633.668H-2ZM-2 641.69V645.701H2V641.69H-2ZM-2 649.711V653.722H2V649.711H-2ZM-2 657.733V661.744H2V657.733H-2ZM-2 665.755V669.766H2V665.755H-2ZM-2 673.777V677.787H2V673.777H-2ZM-2 681.798V685.809H2V681.798H-2ZM-2 689.82V693.831H2V689.82H-2ZM-2 697.842V701.853H2V697.842H-2ZM-2 705.863V709.874H2V705.863H-2ZM-2 713.885V717.896H2V713.885H-2ZM-2 721.907V725.918H2V721.907H-2ZM-2 729.929V733.94H2V729.929H-2ZM-2 737.95V741.961H2V737.95H-2ZM-2 745.972V749.983H2V745.972H-2ZM-2 753.994V756H2V753.994H-2ZM-2 756C-2 756.66 -1.96793 757.314 -1.90516 757.959L2.07603 757.571C2.02577 757.055 2 756.531 2 756H-2ZM-1.14344 761.807C-0.759891 763.073 -0.254388 764.285 0.359183 765.431L3.88525 763.542C3.39471 762.627 2.99096 761.658 2.68472 760.647L-1.14344 761.807ZM2.53996 768.689C3.37107 769.7 4.29952 770.629 5.31107 771.46L7.85038 768.369C7.04011 767.704 6.29631 766.96 5.63058 766.15L2.53996 768.689ZM8.56902 773.641C9.71455 774.254 10.9272 774.76 12.1932 775.143L13.353 771.315C12.3422 771.009 11.3735 770.605 10.4576 770.115L8.56902 773.641ZM16.0413 775.905C16.6862 775.968 17.3397 776 18 776V772C17.4692 772 16.9451 771.974 16.4287 771.924L16.0413 775.905ZM18 776H20.0049V772H18V776ZM24.0148 776H28.0246V772H24.0148V776ZM32.0345 776H36.0444V772H32.0345V776ZM40.0542 776H44.0641V772H40.0542V776ZM48.074 776H52.0839V772H48.074V776ZM56.0937 776H60.1036V772H56.0937V776ZM64.1135 776H68.1233V772H64.1135V776ZM72.1332 776H76.1431V772H72.1332V776ZM80.1529 776H84.1628V772H80.1529V776ZM88.1727 776H92.1825V772H88.1727V776ZM96.1924 776H100.202V772H96.1924V776ZM104.212 776H108.222V772H104.212V776ZM112.232 776H116.242V772H112.232V776ZM120.252 776H124.262V772H120.252V776ZM128.271 776H132.281V772H128.271V776ZM136.291 776H140.301V772H136.291V776ZM144.311 776H148.321V772H144.311V776ZM152.331 776H156.34V772H152.331V776ZM160.35 776H164.36V772H160.35V776ZM168.37 776H172.38V772H168.37V776ZM176.39 776H180.4V772H176.39V776ZM184.41 776H188.419V772H184.41V776ZM192.429 776H196.439V772H192.429V776ZM200.449 776H204.459V772H200.449V776ZM208.469 776H212.479V772H208.469V776ZM216.489 776H220.498V772H216.489V776ZM224.508 776H228.518V772H224.508V776ZM232.528 776H236.538V772H232.528V776ZM240.548 776H244.558V772H240.548V776ZM248.568 776H252.577V772H248.568V776ZM256.587 776H260.597V772H256.587V776ZM264.607 776H268.617V772H264.607V776ZM272.627 776H276.637V772H272.627V776ZM280.647 776H284.656V772H280.647V776ZM288.666 776H292.676V772H288.666V776ZM296.686 776H300.696V772H296.686V776ZM304.706 776H308.716V772H304.706V776ZM312.725 776H316.735V772H312.725V776ZM320.745 776H324.755V772H320.745V776ZM328.765 776H332.775V772H328.765V776ZM336.785 776H340.794V772H336.785V776ZM344.804 776H348.814V772H344.804V776ZM352.824 776H356.834V772H352.824V776ZM360.844 776H364.854V772H360.844V776ZM368.863 776H372.873V772H368.863V776ZM376.883 776H380.893V772H376.883V776ZM384.903 776H388.913V772H384.903V776ZM392.923 776H396.932V772H392.923V776ZM400.942 776H404.952V772H400.942V776ZM408.962 776H412.972V772H408.962V776ZM416.982 776H420.992V772H416.982V776ZM425.001 776H429.011V772H425.001V776ZM433.021 776H437.031V772H433.021V776ZM441.041 776H445.051V772H441.041V776ZM449.061 776H453.07V772H449.061V776ZM457.08 776H461.09V772H457.08V776ZM465.1 776H469.11V772H465.1V776ZM473.12 776H477.13V772H473.12V776ZM481.139 776H485.149V772H481.139V776ZM489.159 776H493.169V772H489.159V776ZM497.179 776H501.189V772H497.179V776ZM505.199 776H509.208V772H505.199V776ZM513.218 776H517.228V772H513.218V776ZM521.238 776H525.248V772H521.238V776ZM529.258 776H533.268V772H529.258V776ZM537.277 776H541.287V772H537.277V776ZM545.297 776H549.307V772H545.297V776ZM553.317 776H557.327V772H553.317V776ZM561.337 776H565.347V772H561.337V776ZM569.357 776H573.366V772H569.357V776ZM577.376 776H581.386V772H577.376V776ZM585.396 776H589.406V772H585.396V776ZM593.416 776H597.426V772H593.416V776ZM601.436 776H605.446V772H601.436V776ZM609.455 776H613.465V772H609.455V776ZM617.475 776H621.485V772H617.475V776ZM625.495 776H629.505V772H625.495V776ZM633.515 776H637.525V772H633.515V776ZM641.535 776H645.544V772H641.535V776ZM649.554 776H653.564V772H649.554V776ZM657.574 776H661.584V772H657.574V776ZM665.594 776H669.604V772H665.594V776ZM673.614 776H677.624V772H673.614V776ZM681.633 776H685.643V772H681.633V776ZM689.653 776H693.663V772H689.653V776ZM697.673 776H701.683V772H697.673V776ZM705.693 776H709.703V772H705.693V776ZM713.712 776H717.722V772H713.712V776ZM721.732 776H725.742V772H721.732V776ZM729.752 776H733.762V772H729.752V776ZM737.772 776H741.782V772H737.772V776ZM745.792 776H749.802V772H745.792V776ZM753.811 776H757.821V772H753.811V776ZM761.831 776H765.841V772H761.831V776ZM769.851 776H773.861V772H769.851V776ZM777.871 776H781.881V772H777.871V776ZM785.891 776H789.9V772H785.891V776ZM793.91 776H797.92V772H793.91V776ZM801.93 776H805.94V772H801.93V776ZM809.95 776H813.96V772H809.95V776ZM817.97 776H821.979V772H817.97V776ZM825.989 776H829.999V772H825.989V776ZM834.009 776H838.019V772H834.009V776ZM842.029 776H846.039V772H842.029V776ZM850.049 776H854.059V772H850.049V776ZM858.068 776H862.078V772H858.068V776ZM866.088 776H870.098V772H866.088V776ZM874.108 776H878.118V772H874.108V776ZM882.128 776H886.138V772H882.128V776ZM890.148 776H894.157V772H890.148V776ZM898.167 776H902.177V772H898.167V776ZM906.187 776H910.197V772H906.187V776ZM914.207 776H918.217V772H914.207V776ZM922.227 776H926.237V772H922.227V776ZM930.246 776H934.256V772H930.246V776ZM938.266 776H942.276V772H938.266V776ZM946.286 776H950.296V772H946.286V776ZM954.306 776H958.316V772H954.306V776ZM962.326 776H966.335V772H962.326V776ZM970.345 776H974.355V772H970.345V776ZM978.365 776H982.375V772H978.365V776ZM986.385 776H990.395V772H986.385V776ZM994.405 776H998.415V772H994.405V776ZM1002.42 776H1006.43V772H1002.42V776ZM1010.44 776H1014.45V772H1010.44V776ZM1018.46 776H1022.47V772H1018.46V776ZM1026.48 776H1030.49V772H1026.48V776ZM1034.5 776H1038.51V772H1034.5V776ZM1042.52 776H1046.53V772H1042.52V776ZM1050.54 776H1054.55V772H1050.54V776ZM1058.56 776H1062.57V772H1058.56V776ZM1066.58 776H1070.59V772H1066.58V776ZM1074.6 776H1078.61V772H1074.6V776ZM1082.62 776H1086.63V772H1082.62V776ZM1090.64 776H1094.65V772H1090.64V776ZM1098.66 776H1102.67V772H1098.66V776ZM1106.68 776H1110.69V772H1106.68V776ZM1114.7 776H1118.71V772H1114.7V776ZM1122.72 776H1126.73V772H1122.72V776ZM1130.74 776H1134.75V772H1130.74V776ZM1138.76 776H1142.77V772H1138.76V776ZM1146.78 776H1150.79V772H1146.78V776ZM1154.8 776H1158.81V772H1154.8V776ZM1162.82 776H1166.83V772H1162.82V776ZM1170.84 776H1174.85V772H1170.84V776ZM1178.86 776H1182.87V772H1178.86V776ZM1186.88 776H1190.89V772H1186.88V776ZM1194.9 776H1198.91V772H1194.9V776ZM1202.92 776H1206.93V772H1202.92V776ZM1210.94 776H1214.95V772H1210.94V776ZM1218.96 776H1222.97V772H1218.96V776ZM1226.98 776H1230.99V772H1226.98V776ZM1235 776H1237V772H1235V776ZM1237 776C1237.66 776 1238.31 775.968 1238.96 775.905L1238.57 771.924C1238.05 771.974 1237.53 772 1237 772V776ZM1242.81 775.143C1244.07 774.76 1245.29 774.254 1246.43 773.641L1244.54 770.115C1243.63 770.605 1242.66 771.009 1241.65 771.315L1242.81 775.143ZM1249.69 771.46C1250.7 770.629 1251.63 769.7 1252.46 768.689L1249.37 766.15C1248.7 766.96 1247.96 767.704 1247.15 768.369L1249.69 771.46ZM1254.64 765.431C1255.25 764.285 1255.76 763.073 1256.14 761.807L1252.32 760.647C1252.01 761.658 1251.61 762.627 1251.11 763.542L1254.64 765.431ZM1256.91 757.959C1256.97 757.314 1257 756.66 1257 756H1253C1253 756.531 1252.97 757.055 1252.92 757.571L1256.91 757.959ZM1257 756V753.995H1253V756H1257ZM1257 749.984V745.973H1253V749.984H1257ZM1257 741.962V737.951H1253V741.962H1257ZM1257 733.94V729.929H1253V733.94H1257ZM1257 725.918V721.908H1253V725.918H1257ZM1257 717.897V713.886H1253V717.897H1257ZM1257 709.875V705.864H1253V709.875H1257ZM1257 701.853V697.842H1253V701.853H1257ZM1257 693.832V689.821H1253V693.832H1257ZM1257 685.81V681.799H1253V685.81H1257ZM1257 677.788V673.777H1253V677.788H1257ZM1257 669.766V665.755H1253V669.766H1257ZM1257 661.745V657.734H1253V661.745H1257ZM1257 653.723V649.712H1253V653.723H1257ZM1257 645.701V641.69H1253V645.701H1257ZM1257 637.679V633.668H1253V637.679H1257ZM1257 629.658V625.647H1253V629.658H1257ZM1257 621.636V617.625H1253V621.636H1257ZM1257 613.614V609.603H1253V613.614H1257ZM1257 605.592V601.582H1253V605.592H1257ZM1257 597.571V593.56H1253V597.571H1257ZM1257 589.549V585.538H1253V589.549H1257ZM1257 581.527V577.516H1253V581.527H1257ZM1257 573.505V569.495H1253V573.505H1257ZM1257 565.484V561.473H1253V565.484H1257ZM1257 557.462V553.451H1253V557.462H1257ZM1257 549.44V545.429H1253V549.44H1257ZM1257 541.419V537.408H1253V541.419H1257ZM1257 533.397V529.386H1253V533.397H1257ZM1257 525.375V521.364H1253V525.375H1257ZM1257 517.353V513.343H1253V517.353H1257ZM1257 509.332V505.321H1253V509.332H1257ZM1257 501.31V497.299H1253V501.31H1257ZM1257 493.288V489.277H1253V493.288H1257ZM1257 485.266V481.256H1253V485.266H1257ZM1257 477.245V473.234H1253V477.245H1257ZM1257 469.223V465.212H1253V469.223H1257ZM1257 461.201V457.19H1253V461.201H1257ZM1257 453.18V449.169H1253V453.18H1257ZM1257 445.158V441.147H1253V445.158H1257ZM1257 437.136V433.125H1253V437.136H1257ZM1257 429.114V425.103H1253V429.114H1257ZM1257 421.093V417.082H1253V421.093H1257ZM1257 413.071V409.06H1253V413.071H1257ZM1257 405.049V401.038H1253V405.049H1257ZM1257 397.027V393.017H1253V397.027H1257ZM1257 389.006V384.995H1253V389.006H1257ZM1257 380.984V376.973H1253V380.984H1257ZM1257 372.962V368.951H1253V372.962H1257ZM1257 364.941V360.93H1253V364.941H1257ZM1257 356.919V352.908H1253V356.919H1257ZM1257 348.897V344.886H1253V348.897H1257ZM1257 340.875V336.864H1253V340.875H1257ZM1257 332.854V328.843H1253V332.854H1257ZM1257 324.832V320.821H1253V324.832H1257ZM1257 316.81V312.799H1253V316.81H1257ZM1257 308.788V304.778H1253V308.788H1257ZM1257 300.767V296.756H1253V300.767H1257ZM1257 292.745V288.734H1253V292.745H1257ZM1257 284.723V280.712H1253V284.723H1257ZM1257 276.702V272.691H1253V276.702H1257ZM1257 268.68V264.669H1253V268.68H1257ZM1257 260.658V256.647H1253V260.658H1257ZM1257 252.636V248.625H1253V252.636H1257ZM1257 244.615V240.604H1253V244.615H1257ZM1257 236.593V232.582H1253V236.593H1257ZM1257 228.571V224.56H1253V228.571H1257ZM1257 220.549V216.539H1253V220.549H1257ZM1257 212.528V208.517H1253V212.528H1257ZM1257 204.506V200.495H1253V204.506H1257ZM1257 196.484V192.473H1253V196.484H1257ZM1257 188.462V184.452H1253V188.462H1257ZM1257 180.441V176.43H1253V180.441H1257ZM1257 172.419V168.408H1253V172.419H1257ZM1257 164.397V160.386H1253V164.397H1257ZM1257 156.376V152.365H1253V156.376H1257ZM1257 148.354V144.343H1253V148.354H1257ZM1257 140.332V136.321H1253V140.332H1257ZM1257 132.31V128.3H1253V132.31H1257ZM1257 124.289V120.278H1253V124.289H1257ZM1257 116.267V112.256H1253V116.267H1257ZM1257 108.245V104.234H1253V108.245H1257ZM1257 100.223V96.2126H1253V100.223H1257ZM1257 92.2017V88.1909H1253V92.2017H1257ZM1257 84.18V80.1691H1253V84.18H1257ZM1257 76.1582V72.1474H1253V76.1582H1257ZM1257 68.1366V64.1257H1253V68.1366H1257ZM1257 60.1148V56.1039H1253V60.1148H1257ZM1257 52.0931V48.0822H1253V52.0931H1257ZM1257 44.0713V40.0605H1253V44.0713H1257ZM1257 36.0496V32.0388H1253V36.0496H1257ZM1257 28.0279V24.017H1253V28.0279H1257ZM1257 20.0062V18H1253V20.0062H1257ZM1257 18C1257 17.3397 1256.97 16.6863 1256.91 16.0413L1252.92 16.4287C1252.97 16.9451 1253 17.4693 1253 18H1257ZM1256.14 12.1932C1255.76 10.9272 1255.25 9.71458 1254.64 8.56904L1251.11 10.4577C1251.61 11.3735 1252.01 12.3422 1252.32 13.353L1256.14 12.1932ZM1252.46 5.31109C1251.63 4.29953 1250.7 3.37108 1249.69 2.53996L1247.15 5.63058C1247.96 6.29632 1248.7 7.04012 1249.37 7.85039L1252.46 5.31109ZM1246.43 0.359181C1245.29 -0.25439 1244.07 -0.759894 1242.81 -1.14345L1241.65 2.68472C1242.66 2.99095 1243.63 3.39471 1244.54 3.88524L1246.43 0.359181ZM1238.96 -1.90516C1238.31 -1.96793 1237.66 -2 1237 -2V2C1237.53 2 1238.05 2.02577 1238.57 2.07603L1238.96 -1.90516ZM1237 -2H1235V2H1237V-2ZM1230.99 -2H1226.98V2H1230.99V-2ZM1222.97 -2H1218.96V2H1222.97V-2ZM1214.95 -2H1210.94V2H1214.95V-2ZM1206.93 -2H1202.92V2H1206.93V-2ZM1198.91 -2H1194.9V2H1198.91V-2ZM1190.89 -2H1186.88V2H1190.89V-2ZM1182.87 -2H1178.86V2H1182.87V-2ZM1174.85 -2H1170.84V2H1174.85V-2ZM1166.83 -2H1162.82V2H1166.83V-2ZM1158.81 -2H1154.8V2H1158.81V-2ZM1150.79 -2H1146.78V2H1150.79V-2ZM1142.77 -2H1138.76V2H1142.77V-2ZM1134.75 -2H1130.74V2H1134.75V-2ZM1126.73 -2H1122.72V2H1126.73V-2ZM1118.71 -2H1114.7V2H1118.71V-2ZM1110.69 -2H1106.68V2H1110.69V-2ZM1102.67 -2H1098.66V2H1102.67V-2ZM1094.65 -2H1090.64V2H1094.65V-2ZM1086.63 -2H1082.62V2H1086.63V-2ZM1078.61 -2H1074.6V2H1078.61V-2ZM1070.59 -2H1066.58V2H1070.59V-2ZM1062.57 -2H1058.56V2H1062.57V-2ZM1054.55 -2H1050.54V2H1054.55V-2ZM1046.53 -2H1042.52V2H1046.53V-2ZM1038.51 -2H1034.5V2H1038.51V-2ZM1030.49 -2H1026.48V2H1030.49V-2ZM1022.47 -2H1018.46V2H1022.47V-2ZM1014.45 -2H1010.44V2H1014.45V-2ZM1006.43 -2H1002.42V2H1006.43V-2ZM998.413 -2H994.403V2H998.413V-2ZM990.393 -2H986.383V2H990.393V-2ZM982.373 -2H978.363V2H982.373V-2ZM974.353 -2H970.344V2H974.353V-2ZM966.334 -2H962.324V2H966.334V-2ZM958.314 -2H954.304V2H958.314V-2ZM950.294 -2H946.284V2H950.294V-2ZM942.275 -2H938.265V2H942.275V-2ZM934.255 -2H930.245V2H934.255V-2ZM926.235 -2H922.225V2H926.235V-2ZM918.215 -2H914.206V2H918.215V-2ZM910.196 -2H906.186V2H910.196V-2ZM902.176 -2H898.166V2H902.176V-2ZM894.156 -2H890.146V2H894.156V-2ZM886.137 -2H882.127V2H886.137V-2ZM878.117 -2H874.107V2H878.117V-2ZM870.097 -2H866.087V2H870.097V-2ZM862.077 -2H858.068V2H862.077V-2ZM854.058 -2H850.048V2H854.058V-2ZM846.038 -2H842.028V2H846.038V-2ZM838.018 -2H834.008V2H838.018V-2ZM829.999 -2H825.989V2H829.999V-2ZM821.979 -2H817.969V2H821.979V-2ZM813.959 -2H809.949V2H813.959V-2ZM805.939 -2H801.93V2H805.939V-2ZM797.92 -2H793.91V2H797.92V-2ZM789.9 -2H785.89V2H789.9V-2ZM781.88 -2H777.87V2H781.88V-2ZM773.861 -2H769.851V2H773.861V-2ZM765.841 -2H761.831V2H765.841V-2ZM757.821 -2H753.811V2H757.821V-2ZM749.801 -2H745.792V2H749.801V-2ZM741.782 -2H737.772V2H741.782V-2ZM733.762 -2H729.752V2H733.762V-2ZM725.742 -2H721.732V2H725.742V-2ZM717.723 -2H713.713V2H717.723V-2ZM709.703 -2H705.693V2H709.703V-2ZM701.683 -2H697.673V2H701.683V-2ZM693.663 -2H689.653V2H693.663V-2ZM685.643 -2H681.634V2H685.643V-2ZM677.624 -2H673.614V2H677.624V-2ZM669.604 -2H665.594V2H669.604V-2ZM661.584 -2H657.574V2H661.584V-2ZM653.564 -2H649.554V2H653.564V-2ZM645.545 -2H641.535V2H645.545V-2ZM637.525 -2H633.515V2H637.525V-2ZM629.505 -2H625.495V2H629.505V-2ZM621.485 -2H617.475V2H621.485V-2ZM613.465 -2H609.456V2H613.465V-2ZM605.446 -2H601.436V2H605.446V-2ZM597.426 -2H593.416V2H597.426V-2ZM589.406 -2H585.396V2H589.406V-2ZM581.386 -2H577.376V2H581.386V-2ZM573.367 -2H569.357V2H573.367V-2ZM565.347 -2H561.337V2H565.347V-2ZM557.327 -2H553.317V2H557.327V-2ZM549.307 -2H545.297V2H549.307V-2ZM541.287 -2H537.278V2H541.287V-2ZM533.268 -2H529.258V2H533.268V-2ZM525.248 -2H521.238V2H525.248V-2ZM517.228 -2H513.218V2H517.228V-2ZM509.208 -2H505.198V2H509.208V-2ZM501.189 -2H497.179V2H501.189V-2ZM493.169 -2H489.159V2H493.169V-2ZM485.149 -2H481.139V2H485.149V-2ZM477.129 -2H473.119V2H477.129V-2ZM469.109 -2H465.1V2H469.109V-2ZM461.09 -2H457.08V2H461.09V-2ZM453.07 -2H449.06V2H453.07V-2ZM445.05 -2H441.04V2H445.05V-2ZM437.03 -2H433.021V2H437.03V-2ZM429.011 -2H425.001V2H429.011V-2ZM420.991 -2H416.981V2H420.991V-2ZM412.971 -2H408.961V2H412.971V-2ZM404.951 -2H400.941V2H404.951V-2ZM396.931 -2H392.922V2H396.931V-2ZM388.912 -2H384.902V2H388.912V-2ZM380.892 -2H376.882V2H380.892V-2ZM372.872 -2H368.862V2H372.872V-2ZM364.852 -2H360.843V2H364.852V-2ZM356.833 -2H352.823V2H356.833V-2ZM348.813 -2H344.803V2H348.813V-2ZM340.793 -2H336.783V2H340.793V-2ZM332.773 -2H328.763V2H332.773V-2ZM324.754 -2H320.744V2H324.754V-2ZM316.734 -2H312.724V2H316.734V-2ZM308.714 -2H304.704V2H308.714V-2ZM300.694 -2H296.684V2H300.694V-2ZM292.674 -2H288.665V2H292.674V-2ZM284.655 -2H280.645V2H284.655V-2ZM276.635 -2H272.625V2H276.635V-2ZM268.615 -2H264.605V2H268.615V-2ZM260.595 -2H256.585V2H260.595V-2ZM252.576 -2H248.566V2H252.576V-2ZM244.556 -2H240.546V2H244.556V-2ZM236.536 -2H232.526V2H236.536V-2ZM228.516 -2H224.506V2H228.516V-2ZM220.496 -2H216.487V2H220.496V-2ZM212.477 -2H208.467V2H212.477V-2ZM204.457 -2H200.447V2H204.457V-2ZM196.437 -2H192.427V2H196.437V-2ZM188.417 -2H184.407V2H188.417V-2ZM180.398 -2H176.388V2H180.398V-2ZM172.378 -2H168.368V2H172.378V-2ZM164.358 -2H160.348V2H164.358V-2ZM156.338 -2H152.328V2H156.338V-2ZM148.318 -2H144.309V2H148.318V-2ZM140.299 -2H136.289V2H140.299V-2ZM132.279 -2H128.269V2H132.279V-2ZM124.259 -2H120.249V2H124.259V-2ZM116.239 -2H112.23V2H116.239V-2ZM108.22 -2H104.21V2H108.22V-2ZM100.2 -2H96.19V2H100.2V-2ZM92.18 -2H88.1702V2H92.18V-2ZM84.1602 -2H80.1504V2H84.1602V-2ZM76.1405 -2H72.1306V2H76.1405V-2ZM68.1207 -2H64.1108V2H68.1207V-2ZM60.101 -2H56.0911V2H60.101V-2ZM52.0812 -2H48.0713V2H52.0812V-2ZM44.0614 -2H40.0515V2H44.0614V-2ZM36.0416 -2H32.0317V2H36.0416V-2ZM28.0219 -2H24.0119V2H28.0219V-2ZM20.0021 -2H18V2H20.0021V-2ZM18 -2C17.3397 -2 16.6863 -1.96793 16.0413 -1.90516L16.4287 2.07603C16.9451 2.02577 17.4693 2 18 2V-2ZM12.1932 -1.14344C10.9272 -0.759887 9.71458 -0.254382 8.56904 0.359191L10.4577 3.88525C11.3735 3.39471 12.3422 2.99096 13.353 2.68472L12.1932 -1.14344ZM5.31109 2.53998C4.29953 3.37109 3.37108 4.29954 2.53997 5.3111L5.63059 7.8504C6.29632 7.04013 7.04012 6.29633 7.8504 5.63059L5.31109 2.53998ZM0.359188 8.56905C-0.254384 9.71459 -0.759888 10.9272 -1.14344 12.1932L2.68472 13.353C2.99096 12.3422 3.39471 11.3735 3.88525 10.4577L0.359188 8.56905ZM-1.90516 16.0413C-1.96793 16.6863 -2 17.3397 -2 18H2C2 17.4693 2.02577 16.9452 2.07603 16.4287L-1.90516 16.0413ZM721 42V43.9885H725V42H721ZM721 47.9655V51.9425H725V47.9655H721ZM721 55.9195V59.8965H725V55.9195H721ZM721 63.8736V67.8506H725V63.8736H721ZM721 71.8276V75.8046H725V71.8276H721ZM721 79.7816V83.7586H725V79.7816H721ZM721 87.7356V91.7126H725V87.7356H721ZM721 95.6897V99.6667H725V95.6897H721ZM721 103.644V107.621H725V103.644H721ZM721 111.598V115.575H725V111.598H721ZM721 119.552V123.529H725V119.552H721ZM721 127.506V131.483H725V127.506H721ZM721 135.46V139.437H725V135.46H721ZM721 143.414V147.391H725V143.414H721ZM721 151.368V155.345H725V151.368H721ZM721 159.322V163.299H725V159.322H721ZM721 167.276V171.253H725V167.276H721ZM721 175.23V179.207H725V175.23H721ZM721 183.184V187.161H725V183.184H721ZM721 191.138V195.115H725V191.138H721ZM721 199.092V203.069H725V199.092H721ZM721 207.046V211.023H725V207.046H721ZM721 215V218.977H725V215H721ZM721 222.954V226.931H725V222.954H721ZM721 230.908V234.885H725V230.908H721ZM721 238.862V242.839H725V238.862H721ZM721 246.816V250.793H725V246.816H721ZM721 254.77V258.747H725V254.77H721ZM721 262.724V266.701H725V262.724H721ZM721 270.678V274.655H725V270.678H721ZM721 278.632V282.609H725V278.632H721ZM721 286.586V290.563H725V286.586H721ZM721 294.54V298.517H725V294.54H721ZM721 302.494V306.471H725V302.494H721ZM721 310.448V314.425H725V310.448H721ZM721 318.402V322.379H725V318.402H721ZM721 326.356V330.333H725V326.356H721ZM721 334.31V338.287H725V334.31H721ZM721 342.264V346.241H725V342.264H721ZM721 350.218V354.195H725V350.218H721ZM721 358.172V362.149H725V358.172H721ZM721 366.126V370.103H725V366.126H721ZM721 374.08V378.057H725V374.08H721ZM721 382.034V386.012H725V382.034H721ZM721 389.989V393.966H725V389.989H721ZM721 397.943V401.92H725V397.943H721ZM721 405.897V409.874H725V405.897H721ZM721 413.851V417.828H725V413.851H721ZM721 421.805V425.782H725V421.805H721ZM721 429.759V433.736H725V429.759H721ZM721 437.713V441.69H725V437.713H721ZM721 445.667V449.644H725V445.667H721ZM721 453.621V457.598H725V453.621H721ZM721 461.575V465.552H725V461.575H721ZM721 469.529V473.506H725V469.529H721ZM721 477.483V481.46H725V477.483H721ZM721 485.437V489.414H725V485.437H721ZM721 493.391V497.368H725V493.391H721ZM721 501.345V505.322H725V501.345H721ZM721 509.299V513.276H725V509.299H721ZM721 517.253V521.23H725V517.253H721ZM721 525.207V529.184H725V525.207H721ZM721 533.161V537.138H725V533.161H721ZM721 541.115V545.092H725V541.115H721ZM721 549.069V553.046H725V549.069H721ZM721 557.023V561H725V557.023H721ZM721 564.977V568.954H725V564.977H721ZM721 572.931V576.908H725V572.931H721ZM721 580.885V584.862H725V580.885H721ZM721 588.839V592.816H725V588.839H721ZM721 596.793V600.77H725V596.793H721ZM721 604.747V608.724H725V604.747H721ZM721 612.701V616.678H725V612.701H721ZM721 620.655V624.632H725V620.655H721ZM721 628.609V632.586H725V628.609H721ZM721 636.563V640.54H725V636.563H721ZM721 644.517V648.494H725V644.517H721ZM721 652.471V656.448H725V652.471H721ZM721 660.425V664.402H725V660.425H721ZM721 668.379V672.356H725V668.379H721ZM721 676.333V680.31H725V676.333H721ZM721 684.287V688.264H725V684.287H721ZM721 692.241V696.218H725V692.241H721ZM721 700.195V704.172H725V700.195H721ZM721 708.149V712.126H725V708.149H721ZM721 716.103V720.08H725V716.103H721ZM721 724.057V728.034H725V724.057H721ZM721 732.011V734H725V732.011H721ZM723 736H724.983V732H723V736ZM728.948 736H732.914V732H728.948V736ZM736.879 736H740.845V732H736.879V736ZM744.81 736H748.776V732H744.81V736ZM752.741 736H756.707V732H752.741V736ZM760.672 736H764.638V732H760.672V736ZM768.603 736H772.569V732H768.603V736ZM776.534 736H780.5V732H776.534V736ZM784.466 736H788.431V732H784.466V736ZM792.397 736H796.362V732H792.397V736ZM800.328 736H804.293V732H800.328V736ZM808.259 736H812.224V732H808.259V736ZM816.19 736H820.155V732H816.19V736ZM824.121 736H828.086V732H824.121V736ZM832.052 736H836.017V732H832.052V736ZM839.983 736H843.948V732H839.983V736ZM847.914 736H851.879V732H847.914V736ZM855.845 736H859.81V732H855.845V736ZM863.776 736H867.741V732H863.776V736ZM871.707 736H875.672V732H871.707V736ZM879.638 736H883.603V732H879.638V736ZM887.569 736H891.534V732H887.569V736ZM895.5 736H899.465V732H895.5V736ZM903.431 736H907.396V732H903.431V736ZM911.362 736H915.328V732H911.362V736ZM919.293 736H923.259V732H919.293V736ZM927.224 736H931.19V732H927.224V736ZM935.155 736H939.121V732H935.155V736ZM943.086 736H947.052V732H943.086V736ZM951.017 736H954.983V732H951.017V736ZM958.948 736H962.914V732H958.948V736ZM966.879 736H970.845V732H966.879V736ZM974.81 736H978.776V732H974.81V736ZM982.741 736H986.707V732H982.741V736ZM990.672 736H994.638V732H990.672V736ZM998.603 736H1002.57V732H998.603V736ZM1006.53 736H1010.5V732H1006.53V736ZM1014.47 736H1018.43V732H1014.47V736ZM1022.4 736H1026.36V732H1022.4V736ZM1030.33 736H1034.29V732H1030.33V736ZM1038.26 736H1042.22V732H1038.26V736ZM1046.19 736H1050.16V732H1046.19V736ZM1054.12 736H1058.09V732H1054.12V736ZM1062.05 736H1066.02V732H1062.05V736ZM1069.98 736H1073.95V732H1069.98V736ZM1077.91 736H1081.88V732H1077.91V736ZM1085.84 736H1089.81V732H1085.84V736ZM1093.78 736H1097.74V732H1093.78V736ZM1101.71 736H1105.67V732H1101.71V736ZM1109.64 736H1113.6V732H1109.64V736ZM1117.57 736H1121.53V732H1117.57V736ZM1125.5 736H1129.47V732H1125.5V736ZM1133.43 736H1137.4V732H1133.43V736ZM1141.36 736H1145.33V732H1141.36V736ZM1149.29 736H1153.26V732H1149.29V736ZM1157.22 736H1161.19V732H1157.22V736ZM1165.16 736H1169.12V732H1165.16V736ZM1173.09 736H1177.05V732H1173.09V736ZM1181.02 736H1183V732H1181.02V736ZM1185 734V732.011H1181V734H1185ZM1185 728.034V724.057H1181V728.034H1185ZM1185 720.08V716.103H1181V720.08H1185ZM1185 712.126V708.149H1181V712.126H1185ZM1185 704.172V700.195H1181V704.172H1185ZM1185 696.218V692.241H1181V696.218H1185ZM1185 688.264V684.287H1181V688.264H1185ZM1185 680.31V676.333H1181V680.31H1185ZM1185 672.356V668.379H1181V672.356H1185ZM1185 664.402V660.425H1181V664.402H1185ZM1185 656.448V652.471H1181V656.448H1185ZM1185 648.494V644.517H1181V648.494H1185ZM1185 640.54V636.563H1181V640.54H1185ZM1185 632.586V628.609H1181V632.586H1185ZM1185 624.632V620.655H1181V624.632H1185ZM1185 616.678V612.701H1181V616.678H1185ZM1185 608.724V604.747H1181V608.724H1185ZM1185 600.77V596.793H1181V600.77H1185ZM1185 592.816V588.839H1181V592.816H1185ZM1185 584.862V580.885H1181V584.862H1185ZM1185 576.908V572.931H1181V576.908H1185ZM1185 568.954V564.977H1181V568.954H1185ZM1185 561V557.023H1181V561H1185ZM1185 553.046V549.069H1181V553.046H1185ZM1185 545.092V541.115H1181V545.092H1185ZM1185 537.138V533.161H1181V537.138H1185ZM1185 529.184V525.207H1181V529.184H1185ZM1185 521.23V517.253H1181V521.23H1185ZM1185 513.276V509.299H1181V513.276H1185ZM1185 505.322V501.345H1181V505.322H1185ZM1185 497.368V493.391H1181V497.368H1185ZM1185 489.414V485.437H1181V489.414H1185ZM1185 481.46V477.483H1181V481.46H1185ZM1185 473.506V469.529H1181V473.506H1185ZM1185 465.552V461.575H1181V465.552H1185ZM1185 457.598V453.621H1181V457.598H1185ZM1185 449.644V445.667H1181V449.644H1185ZM1185 441.69V437.713H1181V441.69H1185ZM1185 433.736V429.759H1181V433.736H1185ZM1185 425.782V421.805H1181V425.782H1185ZM1185 417.828V413.851H1181V417.828H1185ZM1185 409.874V405.897H1181V409.874H1185ZM1185 401.92V397.943H1181V401.92H1185ZM1185 393.966V389.988H1181V393.966H1185ZM1185 386.011V382.034H1181V386.011H1185ZM1185 378.057V374.08H1181V378.057H1185ZM1185 370.103V366.126H1181V370.103H1185ZM1185 362.149V358.172H1181V362.149H1185ZM1185 354.195V350.218H1181V354.195H1185ZM1185 346.241V342.264H1181V346.241H1185ZM1185 338.287V334.31H1181V338.287H1185ZM1185 330.333V326.356H1181V330.333H1185ZM1185 322.379V318.402H1181V322.379H1185ZM1185 314.425V310.448H1181V314.425H1185ZM1185 306.471V302.494H1181V306.471H1185ZM1185 298.517V294.54H1181V298.517H1185ZM1185 290.563V286.586H1181V290.563H1185ZM1185 282.609V278.632H1181V282.609H1185ZM1185 274.655V270.678H1181V274.655H1185ZM1185 266.701V262.724H1181V266.701H1185ZM1185 258.747V254.77H1181V258.747H1185ZM1185 250.793V246.816H1181V250.793H1185ZM1185 242.839V238.862H1181V242.839H1185ZM1185 234.885V230.908H1181V234.885H1185ZM1185 226.931V222.954H1181V226.931H1185ZM1185 218.977V215H1181V218.977H1185ZM1185 211.023V207.046H1181V211.023H1185ZM1185 203.069V199.092H1181V203.069H1185ZM1185 195.115V191.138H1181V195.115H1185ZM1185 187.161V183.184H1181V187.161H1185ZM1185 179.207V175.23H1181V179.207H1185ZM1185 171.253V167.276H1181V171.253H1185ZM1185 163.299V159.322H1181V163.299H1185ZM1185 155.345V151.368H1181V155.345H1185ZM1185 147.391V143.414H1181V147.391H1185ZM1185 139.437V135.46H1181V139.437H1185ZM1185 131.483V127.506H1181V131.483H1185ZM1185 123.529V119.552H1181V123.529H1185ZM1185 115.575V111.598H1181V115.575H1185ZM1185 107.621V103.644H1181V107.621H1185ZM1185 99.6669V95.6899H1181V99.6669H1185ZM1185 91.7129V87.736H1181V91.7129H1185ZM1185 83.759V79.782H1181V83.759H1185ZM1185 75.805V71.828H1181V75.805H1185ZM1185 67.851V63.874H1181V67.851H1185ZM1185 59.897V55.92H1181V59.897H1185ZM1185 51.9431V47.966H1181V51.9431H1185ZM1185 43.9891V42H1181V43.9891H1185ZM1183 40H1181.02V44H1183V40ZM1177.05 40H1173.09V44H1177.05V40ZM1169.12 40H1165.16V44H1169.12V40ZM1161.19 40H1157.22V44H1161.19V40ZM1153.26 40H1149.29V44H1153.26V40ZM1145.33 40H1141.36V44H1145.33V40ZM1137.4 40H1133.43V44H1137.4V40ZM1129.47 40H1125.5V44H1129.47V40ZM1121.53 40H1117.57V44H1121.53V40ZM1113.6 40H1109.64V44H1113.6V40ZM1105.67 40H1101.71V44H1105.67V40ZM1097.74 40H1093.78V44H1097.74V40ZM1089.81 40H1085.84V44H1089.81V40ZM1081.88 40H1077.91V44H1081.88V40ZM1073.95 40H1069.98V44H1073.95V40ZM1066.02 40H1062.05V44H1066.02V40ZM1058.09 40H1054.12V44H1058.09V40ZM1050.16 40H1046.19V44H1050.16V40ZM1042.22 40H1038.26V44H1042.22V40ZM1034.29 40H1030.33V44H1034.29V40ZM1026.36 40H1022.4V44H1026.36V40ZM1018.43 40H1014.47V44H1018.43V40ZM1010.5 40H1006.53V44H1010.5V40ZM1002.57 40H998.604V44H1002.57V40ZM994.638 40H990.672V44H994.638V40ZM986.707 40H982.741V44H986.707V40ZM978.776 40H974.81V44H978.776V40ZM970.845 40H966.879V44H970.845V40ZM962.914 40H958.948V44H962.914V40ZM954.983 40H951.017V44H954.983V40ZM947.052 40H943.086V44H947.052V40ZM939.121 40H935.155V44H939.121V40ZM931.19 40H927.224V44H931.19V40ZM923.259 40H919.293V44H923.259V40ZM915.328 40H911.362V44H915.328V40ZM907.397 40H903.431V44H907.397V40ZM899.466 40H895.5V44H899.466V40ZM891.535 40H887.569V44H891.535V40ZM883.604 40H879.638V44H883.604V40ZM875.673 40H871.707V44H875.673V40ZM867.742 40H863.776V44H867.742V40ZM859.81 40H855.845V44H859.81V40ZM851.879 40H847.914V44H851.879V40ZM843.948 40H839.983V44H843.948V40ZM836.017 40H832.052V44H836.017V40ZM828.086 40H824.121V44H828.086V40ZM820.155 40H816.19V44H820.155V40ZM812.224 40H808.259V44H812.224V40ZM804.293 40H800.328V44H804.293V40ZM796.362 40H792.397V44H796.362V40ZM788.431 40H784.466V44H788.431V40ZM780.5 40H776.535V44H780.5V40ZM772.569 40H768.604V44H772.569V40ZM764.638 40H760.673V44H764.638V40ZM756.707 40H752.742V44H756.707V40ZM748.776 40H744.811V44H748.776V40ZM740.845 40H736.88V44H740.845V40ZM732.914 40H728.948V44H732.914V40ZM724.983 40H723V44H724.983V40Z" fill="white" mask="url(#path-1-inside-1_215_754)"/>
</svg>
