<svg width="571" height="352" viewBox="0 0 571 352" fill="none" xmlns="http://www.w3.org/2000/svg">
<mask id="path-1-inside-1_215_833" fill="white">
<path fill-rule="evenodd" clip-rule="evenodd" d="M18 0C8.05888 0 0 8.05888 0 18V334C0 343.941 8.05887 352 18 352H552.749C562.69 352 570.749 343.941 570.749 334V18C570.749 8.05888 562.69 0 552.749 0H18ZM538.005 19.1008H328.806V333.809H538.005V19.1008Z"/>
</mask>
<path fill-rule="evenodd" clip-rule="evenodd" d="M18 0C8.05888 0 0 8.05888 0 18V334C0 343.941 8.05887 352 18 352H552.749C562.69 352 570.749 343.941 570.749 334V18C570.749 8.05888 562.69 0 552.749 0H18ZM538.005 19.1008H328.806V333.809H538.005V19.1008Z" fill="black" fill-opacity="0.7"/>
<path d="M328.806 19.1008V18.1008H327.806V19.1008H328.806ZM538.005 19.1008H539.005V18.1008H538.005V19.1008ZM328.806 333.809H327.806V334.809H328.806V333.809ZM538.005 333.809V334.809H539.005V333.809H538.005ZM-1 18V19.975H1V18H-1ZM-1 23.925V27.875H1V23.925H-1ZM-1 31.825V35.775H1V31.825H-1ZM-1 39.725V43.675H1V39.725H-1ZM-1 47.625V51.575H1V47.625H-1ZM-1 55.525V59.475H1V55.525H-1ZM-1 63.425V67.375H1V63.425H-1ZM-1 71.325V75.275H1V71.325H-1ZM-1 79.225V83.175H1V79.225H-1ZM-1 87.125V91.075H1V87.125H-1ZM-1 95.025V98.975H1V95.025H-1ZM-1 102.925V106.875H1V102.925H-1ZM-1 110.825V114.775H1V110.825H-1ZM-1 118.725V122.675H1V118.725H-1ZM-1 126.625V130.575H1V126.625H-1ZM-1 134.525V138.475H1V134.525H-1ZM-1 142.425V146.375H1V142.425H-1ZM-1 150.325V154.275H1V150.325H-1ZM-1 158.225V162.175H1V158.225H-1ZM-1 166.125V170.075H1V166.125H-1ZM-1 174.025V177.975H1V174.025H-1ZM-1 181.925V185.875H1V181.925H-1ZM-1 189.825V193.775H1V189.825H-1ZM-1 197.725V201.675H1V197.725H-1ZM-1 205.625V209.575H1V205.625H-1ZM-1 213.525V217.475H1V213.525H-1ZM-1 221.425V225.375H1V221.425H-1ZM-1 229.325V233.275H1V229.325H-1ZM-1 237.225V241.175H1V237.225H-1ZM-1 245.125V249.075H1V245.125H-1ZM-1 253.025V256.975H1V253.025H-1ZM-1 260.925V264.875H1V260.925H-1ZM-1 268.825V272.775H1V268.825H-1ZM-1 276.725V280.675H1V276.725H-1ZM-1 284.625V288.575H1V284.625H-1ZM-1 292.525V296.475H1V292.525H-1ZM-1 300.425V304.375H1V300.425H-1ZM-1 308.325V312.275H1V308.325H-1ZM-1 316.225V320.175H1V316.225H-1ZM-1 324.125V328.075H1V324.125H-1ZM-1 332.025V334H1V332.025H-1ZM-1 334C-1 334.628 -0.969505 335.249 -0.909864 335.862L1.08073 335.668C1.02735 335.12 1 334.563 1 334H-1ZM-0.186403 339.517C0.177821 340.719 0.657888 341.871 1.2407 342.959L3.00373 342.014C2.48244 341.041 2.05325 340.012 1.72768 338.937L-0.186403 339.517ZM3.31262 346.054C4.10239 347.015 4.98467 347.898 5.94591 348.687L7.21557 347.142C6.35497 346.435 5.56501 345.645 4.85793 344.784L3.31262 346.054ZM9.04119 350.759C10.1293 351.342 11.281 351.822 12.4831 352.186L13.0631 350.272C11.9885 349.947 10.9588 349.518 9.9855 348.996L9.04119 350.759ZM16.1381 352.91C16.751 352.97 17.3721 353 18 353V351C17.4369 351 16.8804 350.973 16.3319 350.919L16.1381 352.91ZM18 353H19.9953V351H18V353ZM23.986 353H27.9767V351H23.986V353ZM31.9673 353H35.958V351H31.9673V353ZM39.9487 353H43.9393V351H39.9487V353ZM47.93 353H51.9207V351H47.93V353ZM55.9113 353H59.902V351H55.9113V353ZM63.8927 353H67.8833V351H63.8927V353ZM71.874 353H75.8647V351H71.874V353ZM79.8553 353H83.846V351H79.8553V353ZM87.8367 353H91.8273V351H87.8367V353ZM95.818 353H99.8087V351H95.818V353ZM103.799 353H107.79V351H103.799V353ZM111.781 353H115.771V351H111.781V353ZM119.762 353H123.753V351H119.762V353ZM127.743 353H131.734V351H127.743V353ZM135.725 353H139.715V351H135.725V353ZM143.706 353H147.697V351H143.706V353ZM151.687 353H155.678V351H151.687V353ZM159.669 353H163.659V351H159.669V353ZM167.65 353H171.641V351H167.65V353ZM175.631 353H179.622V351H175.631V353ZM183.613 353H187.603V351H183.613V353ZM191.594 353H195.585V351H191.594V353ZM199.575 353H203.566V351H199.575V353ZM207.557 353H211.547V351H207.557V353ZM215.538 353H219.529V351H215.538V353ZM223.519 353H227.51V351H223.519V353ZM231.501 353H235.491V351H231.501V353ZM239.482 353H243.473V351H239.482V353ZM247.463 353H251.454V351H247.463V353ZM255.445 353H259.435V351H255.445V353ZM263.426 353H267.417V351H263.426V353ZM271.407 353H275.398V351H271.407V353ZM279.389 353H283.379V351H279.389V353ZM287.37 353H291.361V351H287.37V353ZM295.351 353H299.342V351H295.351V353ZM303.332 353H307.323V351H303.332V353ZM311.314 353H315.305V351H311.314V353ZM319.295 353H323.286V351H319.295V353ZM327.276 353H331.267V351H327.276V353ZM335.258 353H339.248V351H335.258V353ZM343.239 353H347.23V351H343.239V353ZM351.22 353H355.211V351H351.22V353ZM359.202 353H363.192V351H359.202V353ZM367.183 353H371.174V351H367.183V353ZM375.164 353H379.155V351H375.164V353ZM383.146 353H387.136V351H383.146V353ZM391.127 353H395.118V351H391.127V353ZM399.108 353H403.099V351H399.108V353ZM407.09 353H411.08V351H407.09V353ZM415.071 353H419.062V351H415.071V353ZM423.052 353H427.043V351H423.052V353ZM431.034 353H435.024V351H431.034V353ZM439.015 353H443.006V351H439.015V353ZM446.996 353H450.987V351H446.996V353ZM454.978 353H458.968V351H454.978V353ZM462.959 353H466.95V351H462.959V353ZM470.94 353H474.931V351H470.94V353ZM478.922 353H482.912V351H478.922V353ZM486.903 353H490.894V351H486.903V353ZM494.884 353H498.875V351H494.884V353ZM502.866 353H506.856V351H502.866V353ZM510.847 353H514.838V351H510.847V353ZM518.828 353H522.819V351H518.828V353ZM526.81 353H530.8V351H526.81V353ZM534.791 353H538.782V351H534.791V353ZM542.772 353H546.763V351H542.772V353ZM550.754 353H552.749V351H550.754V353ZM552.749 353C553.377 353 553.998 352.97 554.611 352.91L554.417 350.919C553.869 350.973 553.312 351 552.749 351V353ZM558.266 352.186C559.468 351.822 560.62 351.342 561.708 350.759L560.764 348.996C559.791 349.518 558.761 349.947 557.686 350.272L558.266 352.186ZM564.803 348.687C565.765 347.898 566.647 347.015 567.437 346.054L565.891 344.784C565.184 345.645 564.394 346.435 563.534 347.142L564.803 348.687ZM569.509 342.959C570.091 341.871 570.572 340.719 570.936 339.517L569.022 338.937C568.696 340.012 568.267 341.041 567.746 342.014L569.509 342.959ZM571.659 335.862C571.719 335.249 571.749 334.628 571.749 334H569.749C569.749 334.563 569.722 335.12 569.669 335.668L571.659 335.862ZM571.749 334V332.025H569.749V334H571.749ZM571.749 328.075V324.125H569.749V328.075H571.749ZM571.749 320.175V316.225H569.749V320.175H571.749ZM571.749 312.275V308.325H569.749V312.275H571.749ZM571.749 304.375V300.425H569.749V304.375H571.749ZM571.749 296.475V292.525H569.749V296.475H571.749ZM571.749 288.575V284.625H569.749V288.575H571.749ZM571.749 280.675V276.725H569.749V280.675H571.749ZM571.749 272.775V268.825H569.749V272.775H571.749ZM571.749 264.875V260.925H569.749V264.875H571.749ZM571.749 256.975V253.025H569.749V256.975H571.749ZM571.749 249.075V245.125H569.749V249.075H571.749ZM571.749 241.175V237.225H569.749V241.175H571.749ZM571.749 233.275V229.325H569.749V233.275H571.749ZM571.749 225.375V221.425H569.749V225.375H571.749ZM571.749 217.475V213.525H569.749V217.475H571.749ZM571.749 209.575V205.625H569.749V209.575H571.749ZM571.749 201.675V197.725H569.749V201.675H571.749ZM571.749 193.775V189.825H569.749V193.775H571.749ZM571.749 185.875V181.925H569.749V185.875H571.749ZM571.749 177.975V174.025H569.749V177.975H571.749ZM571.749 170.075V166.125H569.749V170.075H571.749ZM571.749 162.175V158.225H569.749V162.175H571.749ZM571.749 154.275V150.325H569.749V154.275H571.749ZM571.749 146.375V142.425H569.749V146.375H571.749ZM571.749 138.475V134.525H569.749V138.475H571.749ZM571.749 130.575V126.625H569.749V130.575H571.749ZM571.749 122.675V118.725H569.749V122.675H571.749ZM571.749 114.775V110.825H569.749V114.775H571.749ZM571.749 106.875V102.925H569.749V106.875H571.749ZM571.749 98.9751V95.0251H569.749V98.9751H571.749ZM571.749 91.0751V87.1251H569.749V91.0751H571.749ZM571.749 83.1751V79.2251H569.749V83.1751H571.749ZM571.749 75.2751V71.3251H569.749V75.2751H571.749ZM571.749 67.3751V63.4251H569.749V67.3751H571.749ZM571.749 59.4751V55.5251H569.749V59.4751H571.749ZM571.749 51.5751V47.6251H569.749V51.5751H571.749ZM571.749 43.675V39.725H569.749V43.675H571.749ZM571.749 35.775V31.825H569.749V35.775H571.749ZM571.749 27.875V23.925H569.749V27.875H571.749ZM571.749 19.975V18H569.749V19.975H571.749ZM571.749 18C571.749 17.3721 571.719 16.751 571.659 16.1381L569.669 16.3319C569.722 16.8804 569.749 17.4369 569.749 18H571.749ZM570.936 12.4831C570.572 11.281 570.091 10.1293 569.509 9.04119L567.746 9.9855C568.267 10.9588 568.696 11.9885 569.022 13.0631L570.936 12.4831ZM567.437 5.94591C566.647 4.98467 565.765 4.10239 564.803 3.31262L563.534 4.85793C564.394 5.56501 565.184 6.35497 565.891 7.21557L567.437 5.94591ZM561.708 1.2407C560.62 0.657885 559.468 0.177818 558.266 -0.186406L557.686 1.72767C558.761 2.05324 559.791 2.48243 560.764 3.00373L561.708 1.2407ZM554.611 -0.909865C553.998 -0.969506 553.377 -1 552.749 -1V1C553.312 1 553.869 1.02735 554.417 1.08073L554.611 -0.909865ZM552.749 -1H550.754V1H552.749V-1ZM546.763 -1H542.773V1H546.763V-1ZM538.782 -1H534.791V1H538.782V-1ZM530.801 -1H526.81V1H530.801V-1ZM522.819 -1H518.829V1H522.819V-1ZM514.838 -1H510.847V1H514.838V-1ZM506.857 -1H502.866V1H506.857V-1ZM498.875 -1H494.885V1H498.875V-1ZM490.894 -1H486.903V1H490.894V-1ZM482.913 -1H478.922V1H482.913V-1ZM474.931 -1H470.941V1H474.931V-1ZM466.95 -1H462.959V1H466.95V-1ZM458.969 -1H454.978V1H458.969V-1ZM450.987 -1H446.997V1H450.987V-1ZM443.006 -1H439.015V1H443.006V-1ZM435.025 -1H431.034V1H435.025V-1ZM427.043 -1H423.053V1H427.043V-1ZM419.062 -1H415.071V1H419.062V-1ZM411.081 -1H407.09V1H411.081V-1ZM403.099 -1H399.109V1H403.099V-1ZM395.118 -1H391.127V1H395.118V-1ZM387.137 -1H383.146V1H387.137V-1ZM379.155 -1H375.165V1H379.155V-1ZM371.174 -1H367.183V1H371.174V-1ZM363.193 -1H359.202V1H363.193V-1ZM355.211 -1H351.221V1H355.211V-1ZM347.23 -1H343.239V1H347.23V-1ZM339.249 -1H335.258V1H339.249V-1ZM331.267 -1H327.277V1H331.267V-1ZM323.286 -1H319.295V1H323.286V-1ZM315.305 -1H311.314V1H315.305V-1ZM307.323 -1H303.333V1H307.323V-1ZM299.342 -1H295.351V1H299.342V-1ZM291.361 -1H287.37V1H291.361V-1ZM283.379 -1H279.389V1H283.379V-1ZM275.398 -1H271.408V1H275.398V-1ZM267.417 -1H263.426V1H267.417V-1ZM259.435 -1H255.445V1H259.435V-1ZM251.454 -1H247.464V1H251.454V-1ZM243.473 -1H239.482V1H243.473V-1ZM235.492 -1H231.501V1H235.492V-1ZM227.51 -1H223.52V1H227.51V-1ZM219.529 -1H215.538V1H219.529V-1ZM211.548 -1H207.557V1H211.548V-1ZM203.566 -1H199.576V1H203.566V-1ZM195.585 -1H191.594V1H195.585V-1ZM187.604 -1H183.613V1H187.604V-1ZM179.622 -1H175.632V1H179.622V-1ZM171.641 -1H167.65V1H171.641V-1ZM163.66 -1H159.669V1H163.66V-1ZM155.678 -1H151.688V1H155.678V-1ZM147.697 -1H143.706V1H147.697V-1ZM139.716 -1H135.725V1H139.716V-1ZM131.734 -1H127.744V1H131.734V-1ZM123.753 -1H119.762V1H123.753V-1ZM115.772 -1H111.781V1H115.772V-1ZM107.79 -1H103.8V1H107.79V-1ZM99.809 -1H95.8184V1H99.809V-1ZM91.8277 -1H87.837V1H91.8277V-1ZM83.8464 -1H79.8557V1H83.8464V-1ZM75.8651 -1H71.8744V1H75.8651V-1ZM67.8837 -1H63.8931V1H67.8837V-1ZM59.9024 -1H55.9117V1H59.9024V-1ZM51.9211 -1H47.9304V1H51.9211V-1ZM43.9398 -1H39.9491V1H43.9398V-1ZM35.9584 -1H31.9678V1H35.9584V-1ZM27.9771 -1H23.9865V1H27.9771V-1ZM19.9958 -1H18V1H19.9958V-1ZM18 -1C17.3721 -1 16.751 -0.969505 16.1381 -0.909864L16.3319 1.08073C16.8804 1.02735 17.4369 1 18 1V-1ZM12.4831 -0.186401C11.281 0.177824 10.1293 0.657892 9.04119 1.2407L9.98551 3.00374C10.9588 2.48244 11.9885 2.05325 13.0631 1.72768L12.4831 -0.186401ZM5.94592 3.31263C4.98468 4.1024 4.10239 4.98468 3.31262 5.94592L4.85793 7.21557C5.56501 6.35498 6.35498 5.56502 7.21557 4.85794L5.94592 3.31263ZM1.2407 9.0412C0.657891 10.1293 0.177823 11.281 -0.186402 12.4832L1.72768 13.0631C2.05325 11.9885 2.48244 10.9588 3.00373 9.98551L1.2407 9.0412ZM-0.909864 16.1382C-0.969505 16.751 -1 17.3721 -1 18H1C1 17.4369 1.02735 16.8804 1.08073 16.3319L-0.909864 16.1382ZM327.806 19.1008V21.1181H329.806V19.1008H327.806ZM327.806 25.1529V29.1876H329.806V25.1529H327.806ZM327.806 33.2223V37.257H329.806V33.2223H327.806ZM327.806 41.2917V45.3264H329.806V41.2917H327.806ZM327.806 49.3612V53.3959H329.806V49.3612H327.806ZM327.806 57.4306V61.4653H329.806V57.4306H327.806ZM327.806 65.5V69.5347H329.806V65.5H327.806ZM327.806 73.5695V77.6042H329.806V73.5695H327.806ZM327.806 81.6389V85.6736H329.806V81.6389H327.806ZM327.806 89.7083V93.7431H329.806V89.7083H327.806ZM327.806 97.7778V101.812H329.806V97.7778H327.806ZM327.806 105.847V109.882H329.806V105.847H327.806ZM327.806 113.917V117.951H329.806V113.917H327.806ZM327.806 121.986V126.021H329.806V121.986H327.806ZM327.806 130.056V134.09H329.806V130.056H327.806ZM327.806 138.125V142.16H329.806V138.125H327.806ZM327.806 146.194V150.229H329.806V146.194H327.806ZM327.806 154.264V158.299H329.806V154.264H327.806ZM327.806 162.333V166.368H329.806V162.333H327.806ZM327.806 170.403V174.437H329.806V170.403H327.806ZM327.806 178.472V182.507H329.806V178.472H327.806ZM327.806 186.542V190.576H329.806V186.542H327.806ZM327.806 194.611V198.646H329.806V194.611H327.806ZM327.806 202.68V206.715H329.806V202.68H327.806ZM327.806 210.75V214.785H329.806V210.75H327.806ZM327.806 218.819V222.854H329.806V218.819H327.806ZM327.806 226.889V230.923H329.806V226.889H327.806ZM327.806 234.958V238.993H329.806V234.958H327.806ZM327.806 243.028V247.062H329.806V243.028H327.806ZM327.806 251.097V255.132H329.806V251.097H327.806ZM327.806 259.166V263.201H329.806V259.166H327.806ZM327.806 267.236V271.271H329.806V267.236H327.806ZM327.806 275.305V279.34H329.806V275.305H327.806ZM327.806 283.375V287.409H329.806V283.375H327.806ZM327.806 291.444V295.479H329.806V291.444H327.806ZM327.806 299.514V303.548H329.806V299.514H327.806ZM327.806 307.583V311.618H329.806V307.583H327.806ZM327.806 315.653V319.687H329.806V315.653H327.806ZM327.806 323.722V327.757H329.806V323.722H327.806ZM327.806 331.792V333.809H329.806V331.792H327.806ZM328.806 334.809H330.818V332.809H328.806V334.809ZM334.841 334.809H338.864V332.809H334.841V334.809ZM342.887 334.809H346.91V332.809H342.887V334.809ZM350.933 334.809H354.956V332.809H350.933V334.809ZM358.979 334.809H363.002V332.809H358.979V334.809ZM367.025 334.809H371.048V332.809H367.025V334.809ZM375.071 334.809H379.094V332.809H375.071V334.809ZM383.117 334.809H387.141V332.809H383.117V334.809ZM391.164 334.809H395.187V332.809H391.164V334.809ZM399.21 334.809H403.233V332.809H399.21V334.809ZM407.256 334.809H411.279V332.809H407.256V334.809ZM415.302 334.809H419.325V332.809H415.302V334.809ZM423.348 334.809H427.371V332.809H423.348V334.809ZM431.394 334.809H435.417V332.809H431.394V334.809ZM439.44 334.809H443.463V332.809H439.44V334.809ZM447.486 334.809H451.509V332.809H447.486V334.809ZM455.533 334.809H459.556V332.809H455.533V334.809ZM463.579 334.809H467.602V332.809H463.579V334.809ZM471.625 334.809H475.648V332.809H471.625V334.809ZM479.671 334.809H483.694V332.809H479.671V334.809ZM487.717 334.809H491.74V332.809H487.717V334.809ZM495.763 334.809H499.786V332.809H495.763V334.809ZM503.809 334.809H507.832V332.809H503.809V334.809ZM511.855 334.809H515.878V332.809H511.855V334.809ZM519.901 334.809H523.924V332.809H519.901V334.809ZM527.948 334.809H531.971V332.809H527.948V334.809ZM535.994 334.809H538.005V332.809H535.994V334.809ZM539.005 333.809V331.791H537.005V333.809H539.005ZM539.005 327.757V323.722H537.005V327.757H539.005ZM539.005 319.687V315.653H537.005V319.687H539.005ZM539.005 311.618V307.583H537.005V311.618H539.005ZM539.005 303.548V299.514H537.005V303.548H539.005ZM539.005 295.479V291.444H537.005V295.479H539.005ZM539.005 287.41V283.375H537.005V287.41H539.005ZM539.005 279.34V275.305H537.005V279.34H539.005ZM539.005 271.271V267.236H537.005V271.271H539.005ZM539.005 263.201V259.167H537.005V263.201H539.005ZM539.005 255.132V251.097H537.005V255.132H539.005ZM539.005 247.062V243.028H537.005V247.062H539.005ZM539.005 238.993V234.958H537.005V238.993H539.005ZM539.005 230.923V226.889H537.005V230.923H539.005ZM539.005 222.854V218.819H537.005V222.854H539.005ZM539.005 214.785V210.75H537.005V214.785H539.005ZM539.005 206.715V202.68H537.005V206.715H539.005ZM539.005 198.646V194.611H537.005V198.646H539.005ZM539.005 190.576V186.542H537.005V190.576H539.005ZM539.005 182.507V178.472H537.005V182.507H539.005ZM539.005 174.437V170.403H537.005V174.437H539.005ZM539.005 166.368V162.333H537.005V166.368H539.005ZM539.005 158.299V154.264H537.005V158.299H539.005ZM539.005 150.229V146.194H537.005V150.229H539.005ZM539.005 142.16V138.125H537.005V142.16H539.005ZM539.005 134.09V130.056H537.005V134.09H539.005ZM539.005 126.021V121.986H537.005V126.021H539.005ZM539.005 117.951V113.917H537.005V117.951H539.005ZM539.005 109.882V105.847H537.005V109.882H539.005ZM539.005 101.813V97.7778H537.005V101.813H539.005ZM539.005 93.7431V89.7084H537.005V93.7431H539.005ZM539.005 85.6737V81.639H537.005V85.6737H539.005ZM539.005 77.6043V73.5695H537.005V77.6043H539.005ZM539.005 69.5348V65.5001H537.005V69.5348H539.005ZM539.005 61.4653V57.4306H537.005V61.4653H539.005ZM539.005 53.3959V49.3611H537.005V53.3959H539.005ZM539.005 45.3264V41.2917H537.005V45.3264H539.005ZM539.005 37.257V33.2222H537.005V37.257H539.005ZM539.005 29.1875V25.1528H537.005V29.1875H539.005ZM539.005 21.1181V19.1008H537.005V21.1181H539.005ZM538.005 18.1008H535.994V20.1008H538.005V18.1008ZM531.971 18.1008H527.948V20.1008H531.971V18.1008ZM523.924 18.1008H519.901V20.1008H523.924V18.1008ZM515.878 18.1008H511.855V20.1008H515.878V18.1008ZM507.832 18.1008H503.809V20.1008H507.832V18.1008ZM499.786 18.1008H495.763V20.1008H499.786V18.1008ZM491.74 18.1008H487.717V20.1008H491.74V18.1008ZM483.694 18.1008H479.671V20.1008H483.694V18.1008ZM475.648 18.1008H471.625V20.1008H475.648V18.1008ZM467.602 18.1008H463.579V20.1008H467.602V18.1008ZM459.556 18.1008H455.533V20.1008H459.556V18.1008ZM451.509 18.1008H447.486V20.1008H451.509V18.1008ZM443.463 18.1008H439.44V20.1008H443.463V18.1008ZM435.417 18.1008H431.394V20.1008H435.417V18.1008ZM427.371 18.1008H423.348V20.1008H427.371V18.1008ZM419.325 18.1008H415.302V20.1008H419.325V18.1008ZM411.279 18.1008H407.256V20.1008H411.279V18.1008ZM403.233 18.1008H399.21V20.1008H403.233V18.1008ZM395.187 18.1008H391.164V20.1008H395.187V18.1008ZM387.141 18.1008H383.118V20.1008H387.141V18.1008ZM379.094 18.1008H375.071V20.1008H379.094V18.1008ZM371.048 18.1008H367.025V20.1008H371.048V18.1008ZM363.002 18.1008H358.979V20.1008H363.002V18.1008ZM354.956 18.1008H350.933V20.1008H354.956V18.1008ZM346.91 18.1008H342.887V20.1008H346.91V18.1008ZM338.864 18.1008H334.841V20.1008H338.864V18.1008ZM330.818 18.1008H328.806V20.1008H330.818V18.1008ZM328.806 19.1008V17.1008H326.806V19.1008H328.806ZM538.005 19.1008H540.005V17.1008H538.005V19.1008ZM328.806 333.809H326.806V335.809H328.806V333.809ZM538.005 333.809V335.809H540.005V333.809H538.005ZM-2 18V19.975H2V18H-2ZM-2 23.925V27.875H2V23.925H-2ZM-2 31.825V35.775H2V31.825H-2ZM-2 39.725V43.675H2V39.725H-2ZM-2 47.625V51.575H2V47.625H-2ZM-2 55.525V59.475H2V55.525H-2ZM-2 63.425V67.375H2V63.425H-2ZM-2 71.325V75.275H2V71.325H-2ZM-2 79.225V83.175H2V79.225H-2ZM-2 87.125V91.075H2V87.125H-2ZM-2 95.025V98.975H2V95.025H-2ZM-2 102.925V106.875H2V102.925H-2ZM-2 110.825V114.775H2V110.825H-2ZM-2 118.725V122.675H2V118.725H-2ZM-2 126.625V130.575H2V126.625H-2ZM-2 134.525V138.475H2V134.525H-2ZM-2 142.425V146.375H2V142.425H-2ZM-2 150.325V154.275H2V150.325H-2ZM-2 158.225V162.175H2V158.225H-2ZM-2 166.125V170.075H2V166.125H-2ZM-2 174.025V177.975H2V174.025H-2ZM-2 181.925V185.875H2V181.925H-2ZM-2 189.825V193.775H2V189.825H-2ZM-2 197.725V201.675H2V197.725H-2ZM-2 205.625V209.575H2V205.625H-2ZM-2 213.525V217.475H2V213.525H-2ZM-2 221.425V225.375H2V221.425H-2ZM-2 229.325V233.275H2V229.325H-2ZM-2 237.225V241.175H2V237.225H-2ZM-2 245.125V249.075H2V245.125H-2ZM-2 253.025V256.975H2V253.025H-2ZM-2 260.925V264.875H2V260.925H-2ZM-2 268.825V272.775H2V268.825H-2ZM-2 276.725V280.675H2V276.725H-2ZM-2 284.625V288.575H2V284.625H-2ZM-2 292.525V296.475H2V292.525H-2ZM-2 300.425V304.375H2V300.425H-2ZM-2 308.325V312.275H2V308.325H-2ZM-2 316.225V320.175H2V316.225H-2ZM-2 324.125V328.075H2V324.125H-2ZM-2 332.025V334H2V332.025H-2ZM-2 334C-2 334.66 -1.96793 335.314 -1.90516 335.959L2.07603 335.571C2.02577 335.055 2 334.531 2 334H-2ZM-1.14344 339.807C-0.759891 341.073 -0.254387 342.285 0.359185 343.431L3.88525 341.542C3.39471 340.626 2.99096 339.658 2.68472 338.647L-1.14344 339.807ZM2.53997 346.689C3.37108 347.7 4.29953 348.629 5.31108 349.46L7.85039 346.369C7.04012 345.704 6.29632 344.96 5.63058 344.15L2.53997 346.689ZM8.56903 351.641C9.71457 352.254 10.9272 352.76 12.1932 353.143L13.353 349.315C12.3422 349.009 11.3735 348.605 10.4577 348.115L8.56903 351.641ZM16.0413 353.905C16.6862 353.968 17.3397 354 18 354V350C17.4693 350 16.9451 349.974 16.4287 349.924L16.0413 353.905ZM18 354H19.9953V350H18V354ZM23.986 354H27.9767V350H23.986V354ZM31.9673 354H35.958V350H31.9673V354ZM39.9487 354H43.9393V350H39.9487V354ZM47.93 354H51.9207V350H47.93V354ZM55.9113 354H59.902V350H55.9113V354ZM63.8927 354H67.8833V350H63.8927V354ZM71.874 354H75.8647V350H71.874V354ZM79.8553 354H83.846V350H79.8553V354ZM87.8367 354H91.8273V350H87.8367V354ZM95.818 354H99.8087V350H95.818V354ZM103.799 354H107.79V350H103.799V354ZM111.781 354H115.771V350H111.781V354ZM119.762 354H123.753V350H119.762V354ZM127.743 354H131.734V350H127.743V354ZM135.725 354H139.715V350H135.725V354ZM143.706 354H147.697V350H143.706V354ZM151.687 354H155.678V350H151.687V354ZM159.669 354H163.659V350H159.669V354ZM167.65 354H171.641V350H167.65V354ZM175.631 354H179.622V350H175.631V354ZM183.613 354H187.603V350H183.613V354ZM191.594 354H195.585V350H191.594V354ZM199.575 354H203.566V350H199.575V354ZM207.557 354H211.547V350H207.557V354ZM215.538 354H219.529V350H215.538V354ZM223.519 354H227.51V350H223.519V354ZM231.501 354H235.491V350H231.501V354ZM239.482 354H243.473V350H239.482V354ZM247.463 354H251.454V350H247.463V354ZM255.445 354H259.435V350H255.445V354ZM263.426 354H267.417V350H263.426V354ZM271.407 354H275.398V350H271.407V354ZM279.389 354H283.379V350H279.389V354ZM287.37 354H291.361V350H287.37V354ZM295.351 354H299.342V350H295.351V354ZM303.332 354H307.323V350H303.332V354ZM311.314 354H315.305V350H311.314V354ZM319.295 354H323.286V350H319.295V354ZM327.276 354H331.267V350H327.276V354ZM335.258 354H339.248V350H335.258V354ZM343.239 354H347.23V350H343.239V354ZM351.22 354H355.211V350H351.22V354ZM359.202 354H363.192V350H359.202V354ZM367.183 354H371.174V350H367.183V354ZM375.164 354H379.155V350H375.164V354ZM383.146 354H387.136V350H383.146V354ZM391.127 354H395.118V350H391.127V354ZM399.108 354H403.099V350H399.108V354ZM407.09 354H411.08V350H407.09V354ZM415.071 354H419.062V350H415.071V354ZM423.052 354H427.043V350H423.052V354ZM431.034 354H435.024V350H431.034V354ZM439.015 354H443.006V350H439.015V354ZM446.996 354H450.987V350H446.996V354ZM454.978 354H458.968V350H454.978V354ZM462.959 354H466.95V350H462.959V354ZM470.94 354H474.931V350H470.94V354ZM478.922 354H482.912V350H478.922V354ZM486.903 354H490.894V350H486.903V354ZM494.884 354H498.875V350H494.884V354ZM502.866 354H506.856V350H502.866V354ZM510.847 354H514.838V350H510.847V354ZM518.828 354H522.819V350H518.828V354ZM526.81 354H530.8V350H526.81V354ZM534.791 354H538.782V350H534.791V354ZM542.772 354H546.763V350H542.772V354ZM550.754 354H552.749V350H550.754V354ZM552.749 354C553.41 354 554.063 353.968 554.708 353.905L554.321 349.924C553.804 349.974 553.28 350 552.749 350V354ZM558.556 353.143C559.822 352.76 561.035 352.254 562.18 351.641L560.292 348.115C559.376 348.605 558.407 349.009 557.396 349.315L558.556 353.143ZM565.438 349.46C566.45 348.629 567.378 347.7 568.209 346.689L565.119 344.15C564.453 344.96 563.709 345.704 562.899 346.369L565.438 349.46ZM570.39 343.431C571.004 342.285 571.509 341.073 571.893 339.807L568.065 338.647C567.758 339.658 567.355 340.626 566.864 341.542L570.39 343.431ZM572.654 335.959C572.717 335.314 572.749 334.66 572.749 334H568.749C568.749 334.531 568.724 335.055 568.673 335.571L572.654 335.959ZM572.749 334V332.025H568.749V334H572.749ZM572.749 328.075V324.125H568.749V328.075H572.749ZM572.749 320.175V316.225H568.749V320.175H572.749ZM572.749 312.275V308.325H568.749V312.275H572.749ZM572.749 304.375V300.425H568.749V304.375H572.749ZM572.749 296.475V292.525H568.749V296.475H572.749ZM572.749 288.575V284.625H568.749V288.575H572.749ZM572.749 280.675V276.725H568.749V280.675H572.749ZM572.749 272.775V268.825H568.749V272.775H572.749ZM572.749 264.875V260.925H568.749V264.875H572.749ZM572.749 256.975V253.025H568.749V256.975H572.749ZM572.749 249.075V245.125H568.749V249.075H572.749ZM572.749 241.175V237.225H568.749V241.175H572.749ZM572.749 233.275V229.325H568.749V233.275H572.749ZM572.749 225.375V221.425H568.749V225.375H572.749ZM572.749 217.475V213.525H568.749V217.475H572.749ZM572.749 209.575V205.625H568.749V209.575H572.749ZM572.749 201.675V197.725H568.749V201.675H572.749ZM572.749 193.775V189.825H568.749V193.775H572.749ZM572.749 185.875V181.925H568.749V185.875H572.749ZM572.749 177.975V174.025H568.749V177.975H572.749ZM572.749 170.075V166.125H568.749V170.075H572.749ZM572.749 162.175V158.225H568.749V162.175H572.749ZM572.749 154.275V150.325H568.749V154.275H572.749ZM572.749 146.375V142.425H568.749V146.375H572.749ZM572.749 138.475V134.525H568.749V138.475H572.749ZM572.749 130.575V126.625H568.749V130.575H572.749ZM572.749 122.675V118.725H568.749V122.675H572.749ZM572.749 114.775V110.825H568.749V114.775H572.749ZM572.749 106.875V102.925H568.749V106.875H572.749ZM572.749 98.9751V95.0251H568.749V98.9751H572.749ZM572.749 91.0751V87.1251H568.749V91.0751H572.749ZM572.749 83.1751V79.2251H568.749V83.1751H572.749ZM572.749 75.2751V71.3251H568.749V75.2751H572.749ZM572.749 67.3751V63.4251H568.749V67.3751H572.749ZM572.749 59.4751V55.5251H568.749V59.4751H572.749ZM572.749 51.5751V47.6251H568.749V51.5751H572.749ZM572.749 43.675V39.725H568.749V43.675H572.749ZM572.749 35.775V31.825H568.749V35.775H572.749ZM572.749 27.875V23.925H568.749V27.875H572.749ZM572.749 19.975V18H568.749V19.975H572.749ZM572.749 18C572.749 17.3397 572.717 16.6863 572.654 16.0413L568.673 16.4287C568.724 16.9451 568.749 17.4693 568.749 18H572.749ZM571.893 12.1932C571.509 10.9272 571.004 9.71458 570.39 8.56904L566.864 10.4577C567.355 11.3735 567.758 12.3422 568.065 13.353L571.893 12.1932ZM568.209 5.31109C567.378 4.29953 566.45 3.37108 565.438 2.53996L562.899 5.63058C563.709 6.29632 564.453 7.04012 565.119 7.85039L568.209 5.31109ZM562.18 0.359181C561.035 -0.25439 559.822 -0.759894 558.556 -1.14345L557.396 2.68472C558.407 2.99095 559.376 3.39471 560.292 3.88524L562.18 0.359181ZM554.708 -1.90516C554.063 -1.96793 553.41 -2 552.749 -2V2C553.28 2 553.804 2.02577 554.321 2.07603L554.708 -1.90516ZM552.749 -2H550.754V2H552.749V-2ZM546.763 -2H542.773V2H546.763V-2ZM538.782 -2H534.791V2H538.782V-2ZM530.801 -2H526.81V2H530.801V-2ZM522.819 -2H518.829V2H522.819V-2ZM514.838 -2H510.847V2H514.838V-2ZM506.857 -2H502.866V2H506.857V-2ZM498.875 -2H494.885V2H498.875V-2ZM490.894 -2H486.903V2H490.894V-2ZM482.913 -2H478.922V2H482.913V-2ZM474.931 -2H470.941V2H474.931V-2ZM466.95 -2H462.959V2H466.95V-2ZM458.969 -2H454.978V2H458.969V-2ZM450.987 -2H446.997V2H450.987V-2ZM443.006 -2H439.015V2H443.006V-2ZM435.025 -2H431.034V2H435.025V-2ZM427.043 -2H423.053V2H427.043V-2ZM419.062 -2H415.071V2H419.062V-2ZM411.081 -2H407.09V2H411.081V-2ZM403.099 -2H399.109V2H403.099V-2ZM395.118 -2H391.127V2H395.118V-2ZM387.137 -2H383.146V2H387.137V-2ZM379.155 -2H375.165V2H379.155V-2ZM371.174 -2H367.183V2H371.174V-2ZM363.193 -2H359.202V2H363.193V-2ZM355.211 -2H351.221V2H355.211V-2ZM347.23 -2H343.239V2H347.23V-2ZM339.249 -2H335.258V2H339.249V-2ZM331.267 -2H327.277V2H331.267V-2ZM323.286 -2H319.295V2H323.286V-2ZM315.305 -2H311.314V2H315.305V-2ZM307.323 -2H303.333V2H307.323V-2ZM299.342 -2H295.351V2H299.342V-2ZM291.361 -2H287.37V2H291.361V-2ZM283.379 -2H279.389V2H283.379V-2ZM275.398 -2H271.408V2H275.398V-2ZM267.417 -2H263.426V2H267.417V-2ZM259.435 -2H255.445V2H259.435V-2ZM251.454 -2H247.464V2H251.454V-2ZM243.473 -2H239.482V2H243.473V-2ZM235.492 -2H231.501V2H235.492V-2ZM227.51 -2H223.52V2H227.51V-2ZM219.529 -2H215.538V2H219.529V-2ZM211.548 -2H207.557V2H211.548V-2ZM203.566 -2H199.576V2H203.566V-2ZM195.585 -2H191.594V2H195.585V-2ZM187.604 -2H183.613V2H187.604V-2ZM179.622 -2H175.632V2H179.622V-2ZM171.641 -2H167.65V2H171.641V-2ZM163.66 -2H159.669V2H163.66V-2ZM155.678 -2H151.688V2H155.678V-2ZM147.697 -2H143.706V2H147.697V-2ZM139.716 -2H135.725V2H139.716V-2ZM131.734 -2H127.744V2H131.734V-2ZM123.753 -2H119.762V2H123.753V-2ZM115.772 -2H111.781V2H115.772V-2ZM107.79 -2H103.8V2H107.79V-2ZM99.809 -2H95.8184V2H99.809V-2ZM91.8277 -2H87.837V2H91.8277V-2ZM83.8464 -2H79.8557V2H83.8464V-2ZM75.8651 -2H71.8744V2H75.8651V-2ZM67.8837 -2H63.8931V2H67.8837V-2ZM59.9024 -2H55.9117V2H59.9024V-2ZM51.9211 -2H47.9304V2H51.9211V-2ZM43.9398 -2H39.9491V2H43.9398V-2ZM35.9584 -2H31.9678V2H35.9584V-2ZM27.9771 -2H23.9865V2H27.9771V-2ZM19.9958 -2H18V2H19.9958V-2ZM18 -2C17.3397 -2 16.6863 -1.96793 16.0413 -1.90516L16.4287 2.07603C16.9451 2.02577 17.4693 2 18 2V-2ZM12.1932 -1.14344C10.9272 -0.759888 9.71458 -0.254382 8.56904 0.35919L10.4577 3.88525C11.3735 3.39471 12.3422 2.99096 13.353 2.68472L12.1932 -1.14344ZM5.31109 2.53997C4.29953 3.37109 3.37108 4.29954 2.53997 5.31109L5.63059 7.8504C6.29632 7.04013 7.04012 6.29633 7.8504 5.63059L5.31109 2.53997ZM0.359188 8.56904C-0.254384 9.71458 -0.759888 10.9272 -1.14344 12.1932L2.68472 13.353C2.99096 12.3422 3.39471 11.3735 3.88525 10.4577L0.359188 8.56904ZM-1.90516 16.0413C-1.96793 16.6863 -2 17.3397 -2 18H2C2 17.4693 2.02577 16.9451 2.07603 16.4287L-1.90516 16.0413ZM326.806 19.1008V21.1181H330.806V19.1008H326.806ZM326.806 25.1529V29.1876H330.806V25.1529H326.806ZM326.806 33.2223V37.257H330.806V33.2223H326.806ZM326.806 41.2917V45.3264H330.806V41.2917H326.806ZM326.806 49.3612V53.3959H330.806V49.3612H326.806ZM326.806 57.4306V61.4653H330.806V57.4306H326.806ZM326.806 65.5V69.5347H330.806V65.5H326.806ZM326.806 73.5695V77.6042H330.806V73.5695H326.806ZM326.806 81.6389V85.6736H330.806V81.6389H326.806ZM326.806 89.7083V93.7431H330.806V89.7083H326.806ZM326.806 97.7778V101.812H330.806V97.7778H326.806ZM326.806 105.847V109.882H330.806V105.847H326.806ZM326.806 113.917V117.951H330.806V113.917H326.806ZM326.806 121.986V126.021H330.806V121.986H326.806ZM326.806 130.056V134.09H330.806V130.056H326.806ZM326.806 138.125V142.16H330.806V138.125H326.806ZM326.806 146.194V150.229H330.806V146.194H326.806ZM326.806 154.264V158.299H330.806V154.264H326.806ZM326.806 162.333V166.368H330.806V162.333H326.806ZM326.806 170.403V174.437H330.806V170.403H326.806ZM326.806 178.472V182.507H330.806V178.472H326.806ZM326.806 186.542V190.576H330.806V186.542H326.806ZM326.806 194.611V198.646H330.806V194.611H326.806ZM326.806 202.68V206.715H330.806V202.68H326.806ZM326.806 210.75V214.785H330.806V210.75H326.806ZM326.806 218.819V222.854H330.806V218.819H326.806ZM326.806 226.889V230.923H330.806V226.889H326.806ZM326.806 234.958V238.993H330.806V234.958H326.806ZM326.806 243.028V247.062H330.806V243.028H326.806ZM326.806 251.097V255.132H330.806V251.097H326.806ZM326.806 259.166V263.201H330.806V259.166H326.806ZM326.806 267.236V271.271H330.806V267.236H326.806ZM326.806 275.305V279.34H330.806V275.305H326.806ZM326.806 283.375V287.409H330.806V283.375H326.806ZM326.806 291.444V295.479H330.806V291.444H326.806ZM326.806 299.514V303.548H330.806V299.514H326.806ZM326.806 307.583V311.618H330.806V307.583H326.806ZM326.806 315.653V319.687H330.806V315.653H326.806ZM326.806 323.722V327.757H330.806V323.722H326.806ZM326.806 331.792V333.809H330.806V331.792H326.806ZM328.806 335.809H330.818V331.809H328.806V335.809ZM334.841 335.809H338.864V331.809H334.841V335.809ZM342.887 335.809H346.91V331.809H342.887V335.809ZM350.933 335.809H354.956V331.809H350.933V335.809ZM358.979 335.809H363.002V331.809H358.979V335.809ZM367.025 335.809H371.048V331.809H367.025V335.809ZM375.071 335.809H379.094V331.809H375.071V335.809ZM383.117 335.809H387.141V331.809H383.117V335.809ZM391.164 335.809H395.187V331.809H391.164V335.809ZM399.21 335.809H403.233V331.809H399.21V335.809ZM407.256 335.809H411.279V331.809H407.256V335.809ZM415.302 335.809H419.325V331.809H415.302V335.809ZM423.348 335.809H427.371V331.809H423.348V335.809ZM431.394 335.809H435.417V331.809H431.394V335.809ZM439.44 335.809H443.463V331.809H439.44V335.809ZM447.486 335.809H451.509V331.809H447.486V335.809ZM455.533 335.809H459.556V331.809H455.533V335.809ZM463.579 335.809H467.602V331.809H463.579V335.809ZM471.625 335.809H475.648V331.809H471.625V335.809ZM479.671 335.809H483.694V331.809H479.671V335.809ZM487.717 335.809H491.74V331.809H487.717V335.809ZM495.763 335.809H499.786V331.809H495.763V335.809ZM503.809 335.809H507.832V331.809H503.809V335.809ZM511.855 335.809H515.878V331.809H511.855V335.809ZM519.901 335.809H523.924V331.809H519.901V335.809ZM527.948 335.809H531.971V331.809H527.948V335.809ZM535.994 335.809H538.005V331.809H535.994V335.809ZM540.005 333.809V331.791H536.005V333.809H540.005ZM540.005 327.757V323.722H536.005V327.757H540.005ZM540.005 319.687V315.653H536.005V319.687H540.005ZM540.005 311.618V307.583H536.005V311.618H540.005ZM540.005 303.548V299.514H536.005V303.548H540.005ZM540.005 295.479V291.444H536.005V295.479H540.005ZM540.005 287.41V283.375H536.005V287.41H540.005ZM540.005 279.34V275.305H536.005V279.34H540.005ZM540.005 271.271V267.236H536.005V271.271H540.005ZM540.005 263.201V259.167H536.005V263.201H540.005ZM540.005 255.132V251.097H536.005V255.132H540.005ZM540.005 247.062V243.028H536.005V247.062H540.005ZM540.005 238.993V234.958H536.005V238.993H540.005ZM540.005 230.923V226.889H536.005V230.923H540.005ZM540.005 222.854V218.819H536.005V222.854H540.005ZM540.005 214.785V210.75H536.005V214.785H540.005ZM540.005 206.715V202.68H536.005V206.715H540.005ZM540.005 198.646V194.611H536.005V198.646H540.005ZM540.005 190.576V186.542H536.005V190.576H540.005ZM540.005 182.507V178.472H536.005V182.507H540.005ZM540.005 174.437V170.403H536.005V174.437H540.005ZM540.005 166.368V162.333H536.005V166.368H540.005ZM540.005 158.299V154.264H536.005V158.299H540.005ZM540.005 150.229V146.194H536.005V150.229H540.005ZM540.005 142.16V138.125H536.005V142.16H540.005ZM540.005 134.09V130.056H536.005V134.09H540.005ZM540.005 126.021V121.986H536.005V126.021H540.005ZM540.005 117.951V113.917H536.005V117.951H540.005ZM540.005 109.882V105.847H536.005V109.882H540.005ZM540.005 101.813V97.7778H536.005V101.813H540.005ZM540.005 93.7431V89.7084H536.005V93.7431H540.005ZM540.005 85.6737V81.639H536.005V85.6737H540.005ZM540.005 77.6043V73.5695H536.005V77.6043H540.005ZM540.005 69.5348V65.5001H536.005V69.5348H540.005ZM540.005 61.4653V57.4306H536.005V61.4653H540.005ZM540.005 53.3959V49.3611H536.005V53.3959H540.005ZM540.005 45.3264V41.2917H536.005V45.3264H540.005ZM540.005 37.257V33.2222H536.005V37.257H540.005ZM540.005 29.1875V25.1528H536.005V29.1875H540.005ZM540.005 21.1181V19.1008H536.005V21.1181H540.005ZM538.005 17.1008H535.994V21.1008H538.005V17.1008ZM531.971 17.1008H527.948V21.1008H531.971V17.1008ZM523.924 17.1008H519.901V21.1008H523.924V17.1008ZM515.878 17.1008H511.855V21.1008H515.878V17.1008ZM507.832 17.1008H503.809V21.1008H507.832V17.1008ZM499.786 17.1008H495.763V21.1008H499.786V17.1008ZM491.74 17.1008H487.717V21.1008H491.74V17.1008ZM483.694 17.1008H479.671V21.1008H483.694V17.1008ZM475.648 17.1008H471.625V21.1008H475.648V17.1008ZM467.602 17.1008H463.579V21.1008H467.602V17.1008ZM459.556 17.1008H455.533V21.1008H459.556V17.1008ZM451.509 17.1008H447.486V21.1008H451.509V17.1008ZM443.463 17.1008H439.44V21.1008H443.463V17.1008ZM435.417 17.1008H431.394V21.1008H435.417V17.1008ZM427.371 17.1008H423.348V21.1008H427.371V17.1008ZM419.325 17.1008H415.302V21.1008H419.325V17.1008ZM411.279 17.1008H407.256V21.1008H411.279V17.1008ZM403.233 17.1008H399.21V21.1008H403.233V17.1008ZM395.187 17.1008H391.164V21.1008H395.187V17.1008ZM387.141 17.1008H383.118V21.1008H387.141V17.1008ZM379.094 17.1008H375.071V21.1008H379.094V17.1008ZM371.048 17.1008H367.025V21.1008H371.048V17.1008ZM363.002 17.1008H358.979V21.1008H363.002V17.1008ZM354.956 17.1008H350.933V21.1008H354.956V17.1008ZM346.91 17.1008H342.887V21.1008H346.91V17.1008ZM338.864 17.1008H334.841V21.1008H338.864V17.1008ZM330.818 17.1008H328.806V21.1008H330.818V17.1008Z" fill="white" mask="url(#path-1-inside-1_215_833)"/>
</svg>
