<svg width="100" height="100" viewBox="0 0 100 100" fill="none" xmlns="http://www.w3.org/2000/svg">
<path d="M13.833 42.9286C15.1465 43.1007 16.4741 42.7399 17.5236 41.9258C18.5731 41.1117 19.2587 39.9108 19.4294 38.5874C19.6002 37.264 19.2422 35.9265 18.4341 34.869C17.6261 33.8116 16.4342 33.1209 15.1207 32.9488L6.40416 30.7533C5.76868 30.557 5.10049 30.4916 4.4394 30.561C3.7783 30.6304 3.13784 30.8331 2.55616 31.1572C1.97448 31.4812 1.46349 31.9199 1.05363 32.4471C0.643779 32.9743 0.343447 33.5793 0.17053 34.2259C-0.00238576 34.8725 -0.0443481 35.5476 0.0471449 36.2109C0.138638 36.8742 0.361714 37.5122 0.70308 38.0868C1.04445 38.6614 1.49712 39.1609 2.03413 39.5555C2.57114 39.9501 3.18149 40.2318 3.82883 40.3838L12.5454 42.729C12.9603 42.8685 13.3957 42.936 13.833 42.9286ZM32.95 15.0351C33.2402 16.1237 33.8877 17.0812 34.787 17.7517C35.6863 18.4222 36.7844 18.7662 37.9025 18.7276C38.329 18.7966 38.7637 18.7966 39.1902 18.7276C40.4472 18.3772 41.5164 17.5414 42.1654 16.4016C42.8145 15.2619 42.9912 13.9101 42.657 12.6399L40.3293 3.85768C40.1785 3.20547 39.8989 2.59052 39.5072 2.04946C39.1156 1.5084 38.6198 1.05232 38.0495 0.708379C37.4792 0.36444 36.846 0.139683 36.1876 0.0475002C35.5293 -0.0446823 34.8593 -0.00240374 34.2175 0.171816C33.5757 0.346035 32.9753 0.648631 32.452 1.06157C31.9287 1.47452 31.4933 1.98936 31.1717 2.57542C30.8501 3.16149 30.6489 3.80678 30.58 4.47286C30.5111 5.13893 30.576 5.81216 30.7708 6.45243L32.95 15.0351ZM56.8709 64.9341C56.4082 64.4434 55.8513 64.0527 55.234 63.7857C54.6168 63.5187 53.952 63.381 53.2803 63.381C52.6085 63.381 51.9438 63.5187 51.3265 63.7857C50.7093 64.0527 50.1523 64.4434 49.6897 64.9341L32.3557 82.6982C30.3176 84.6682 27.6026 85.7682 24.7782 85.7682C21.9539 85.7682 19.2388 84.6682 17.2008 82.6982C16.1975 81.7002 15.4009 80.5115 14.8572 79.2009C14.3136 77.8903 14.0336 76.484 14.0336 75.0636C14.0336 73.6432 14.3136 72.2369 14.8572 70.9263C15.4009 69.6157 16.1975 68.427 17.2008 67.429L34.8319 49.9644C35.3504 49.5171 35.7715 48.9666 36.0687 48.3475C36.366 47.7284 36.5331 47.0541 36.5594 46.3669C36.5857 45.6797 36.4708 44.9945 36.2218 44.3541C35.9728 43.7138 35.5952 43.1322 35.1125 42.6459C34.6299 42.1597 34.0526 41.7791 33.4171 41.5283C32.7816 41.2774 32.1014 41.1616 31.4194 41.1882C30.7373 41.2147 30.068 41.383 29.4536 41.6825C28.8392 41.982 28.2928 42.4063 27.8488 42.9286L10.0691 60.3434C8.14394 62.283 6.61685 64.5857 5.57497 67.12C4.5331 69.6542 3.99686 72.3704 3.99686 75.1135C3.99686 77.8566 4.5331 80.5728 5.57497 83.107C6.61685 85.6413 8.14394 87.944 10.0691 89.8836C11.9942 91.8232 14.2797 93.3619 16.795 94.4116C19.3103 95.4613 22.0061 96.0016 24.7287 96.0016C27.4512 96.0016 30.1471 95.4613 32.6624 94.4116C35.1777 93.3619 37.4632 91.8232 39.3883 89.8836L56.8709 72.2692C57.3736 71.802 57.7748 71.2349 58.0492 70.6037C58.3236 69.9724 58.4653 69.2908 58.4653 68.6017C58.4653 67.9126 58.3236 67.2309 58.0492 66.5997C57.7748 65.9685 57.3736 65.4014 56.8709 64.9341ZM15.9131 22.969C16.8356 23.8909 18.0807 24.4106 19.3799 24.4161C20.0317 24.4199 20.6778 24.294 21.2812 24.0457C21.8846 23.7974 22.4335 23.4315 22.8962 22.969C23.8187 22.0341 24.3364 20.7694 24.3364 19.4511C24.3364 18.1329 23.8187 16.8682 22.8962 15.9332L16.5074 9.49627C15.56 8.6788 14.3413 8.25163 13.0948 8.30014C11.8484 8.34865 10.666 8.86925 9.78398 9.75793C8.90196 10.6466 8.38524 11.8379 8.3371 13.0937C8.28895 14.3496 8.71292 15.5775 9.52429 16.532L15.9131 22.969ZM95.5505 59.545L86.834 57.1997C86.188 56.9748 85.5029 56.887 84.8216 56.9418C84.1403 56.9967 83.4777 57.193 82.8754 57.5184C82.2731 57.8439 81.7442 58.2914 81.3219 58.8328C80.8996 59.3742 80.5932 59.9979 80.4218 60.6645C80.2504 61.3311 80.2178 62.0262 80.326 62.7061C80.4342 63.386 80.6809 64.0359 81.0506 64.6151C81.4203 65.1943 81.905 65.69 82.4742 66.0713C83.0433 66.4525 83.6846 66.7109 84.3577 66.8303L93.0742 69.1755H94.3619C95.6754 69.3476 97.0029 68.9868 98.0525 68.1727C99.102 67.3586 99.7875 66.1577 99.9583 64.8343C100.129 63.5109 99.771 62.1734 98.963 61.1159C98.1549 60.0585 96.9631 59.3678 95.6496 59.1957L95.5505 59.545ZM66.4294 84.8937C66.2574 84.2611 65.9634 83.6689 65.5641 83.1508C65.1648 82.6328 64.6681 82.1992 64.1023 81.8748C63.5365 81.5504 62.9128 81.3415 62.2668 81.2602C61.6209 81.1789 60.9653 81.2266 60.3377 81.4008C59.0807 81.7511 58.0116 82.5869 57.3625 83.7267C56.7134 84.8665 56.5368 86.2182 56.8709 87.4885L59.1986 96.2707C59.4888 97.3593 60.1363 98.3168 61.0356 98.9873C61.9349 99.6578 63.0331 100.002 64.1512 99.9632C64.579 100.012 65.011 100.012 65.4389 99.9632C66.0712 99.7953 66.6643 99.503 67.1839 99.1029C67.7035 98.7029 68.1393 98.2032 68.4662 97.6326C68.7932 97.062 69.0047 96.4318 69.0886 95.7784C69.1725 95.125 69.1272 94.4613 68.9552 93.8256L66.4294 84.8937ZM83.4662 77.0596C82.5188 76.2421 81.3001 75.8149 80.0536 75.8634C78.8072 75.9119 77.6248 76.4325 76.7428 77.3212C75.8608 78.2099 75.3441 79.4012 75.2959 80.657C75.2478 81.9129 75.6717 83.1407 76.4831 84.0953L82.8719 90.5323C83.7999 91.4617 85.0551 91.9833 86.3635 91.9833C87.6719 91.9833 88.9271 91.4617 89.855 90.5323C90.7775 89.5974 91.2952 88.3327 91.2952 87.0144C91.2952 85.6962 90.7775 84.4314 89.855 83.4965L83.4662 77.0596ZM95.2534 25.0149C95.3303 20.8655 94.171 16.7881 91.9251 13.3091C89.6793 9.83007 86.4499 7.10921 82.654 5.49776C78.8581 3.88631 74.67 3.45825 70.6302 4.26884C66.5904 5.07943 62.8846 7.09145 59.991 10.0452L42.5084 27.8092C42.0402 28.2843 41.6693 28.8477 41.4172 29.4671C41.165 30.0866 41.0364 30.75 41.0387 31.4196C41.041 32.0891 41.1741 32.7517 41.4306 33.3694C41.687 33.9871 42.0617 34.5478 42.5332 35.0196C43.0047 35.4914 43.5639 35.865 44.1787 36.1191C44.7935 36.3732 45.452 36.5028 46.1166 36.5005C46.7811 36.4982 47.4387 36.364 48.0518 36.1056C48.6648 35.8473 49.2214 35.4698 49.6897 34.9947L67.0237 17.2306C69.0617 15.2606 71.7768 14.1605 74.6011 14.1605C77.4255 14.1605 80.1405 15.2606 82.1786 17.2306C83.1818 18.2286 83.9784 19.4173 84.5221 20.7279C85.0658 22.0384 85.3457 23.4447 85.3457 24.8652C85.3457 26.2856 85.0658 27.6919 84.5221 29.0025C83.9784 30.313 83.1818 31.5018 82.1786 32.4997L64.5474 49.9644C63.625 50.8993 63.1072 52.164 63.1072 53.4823C63.1072 54.8005 63.625 56.0652 64.5474 57.0001C65.4753 57.9295 66.7306 58.4512 68.039 58.4512C69.3474 58.4512 70.6026 57.9295 71.5305 57.0001L89.3103 39.5854C93.101 35.695 95.2336 30.4666 95.2534 25.0149Z" fill="white"/>
</svg>
