<svg width="37" height="37" viewBox="0 0 37 37" fill="none" xmlns="http://www.w3.org/2000/svg">
<mask id="mask0_87_84" style="mask-type:luminance" maskUnits="userSpaceOnUse" x="0" y="0" width="37" height="37">
<path d="M0 37H37V0H0V37Z" fill="white"/>
</mask>
<g mask="url(#mask0_87_84)">
<path fill-rule="evenodd" clip-rule="evenodd" d="M21.8095 19.2402C21.7458 19.3617 21.6717 19.4786 21.5988 19.5966C21.4594 19.8228 21.3095 20.0449 21.1376 20.2555C20.744 20.7389 20.279 21.1597 19.7587 21.5033C19.7054 21.5386 19.6487 21.5669 19.5943 21.6005C18.3328 22.3793 16.8307 22.6723 15.3688 22.4248C13.9068 22.1773 12.5851 21.4062 11.6504 20.2555C11.3931 19.9404 11.1682 19.6003 10.9791 19.2402C10.519 18.3633 10.2789 17.3878 10.2795 16.3975C10.2795 15.4199 10.5127 14.4423 10.9791 13.5549C11.2663 13.0095 11.6342 12.5106 12.0705 12.0751C12.6377 11.5066 13.3117 11.0558 14.0537 10.7486C14.7957 10.4413 15.5911 10.2837 16.3943 10.2847C17.959 10.2847 19.5243 10.8817 20.7181 12.0751C21.1544 12.5106 21.5223 13.0095 21.8095 13.5549C22.2696 14.4318 22.5097 15.4073 22.5091 16.3975C22.5091 17.3752 22.2759 18.3528 21.8095 19.2402ZM23.2833 21.2395C25.5963 17.9531 25.2919 13.375 22.3546 10.4391C21.5738 9.65407 20.6449 9.03166 19.6218 8.60796C18.5987 8.18425 17.5017 7.96766 16.3943 7.97074C15.2868 7.96771 14.1897 8.18432 13.1665 8.60802C12.1433 9.03173 11.2144 9.65411 10.4334 10.4391C7.14719 13.7244 7.14719 19.0707 10.4334 22.356C11.2144 23.141 12.1433 23.7634 13.1665 24.1871C14.1897 24.6108 15.2868 24.8274 16.3943 24.8244C18.1552 24.8244 19.8298 24.2812 21.2395 23.2862L26.7212 28.7668C26.8554 28.9012 27.0149 29.0078 27.1905 29.0805C27.3661 29.1532 27.5543 29.1905 27.7443 29.1902C28.0303 29.19 28.3099 29.105 28.5477 28.9461C28.7854 28.7871 28.9708 28.5613 29.0802 28.2971C29.1897 28.0329 29.2184 27.7422 29.1627 27.4618C29.107 27.1813 28.9695 26.9236 28.7674 26.7212L23.2833 21.2395Z" fill="#FFFFFE"/>
</g>
<mask id="mask1_87_84" style="mask-type:luminance" maskUnits="userSpaceOnUse" x="0" y="0" width="37" height="37">
<path d="M0 37H37V0H0V37Z" fill="white"/>
</mask>
<g mask="url(#mask1_87_84)">
<path fill-rule="evenodd" clip-rule="evenodd" d="M28.7679 28.7667C28.6336 28.9011 28.4742 29.0078 28.2986 29.0804C28.123 29.1531 27.9348 29.1904 27.7448 29.1901C27.3744 29.1901 27.0041 29.049 26.7217 28.7667L21.24 23.2861C19.8237 24.289 18.1304 24.8266 16.3948 24.8243C15.2873 24.8273 14.1902 24.6107 13.167 24.187C12.1439 23.7633 11.2149 23.1409 10.434 22.3559C7.1477 19.0707 7.1477 13.7243 10.434 10.4391C11.2149 9.65404 12.1439 9.03166 13.167 8.60795C14.1902 8.18425 15.2873 7.96764 16.3948 7.97067C18.6464 7.97067 20.7632 8.84707 22.3551 10.4391C25.2924 13.3749 25.5968 17.953 23.2838 21.2394L28.7679 26.7211C29.0391 26.9925 29.1915 27.3603 29.1915 27.7439C29.1915 28.1275 29.0391 28.4954 28.7679 28.7667ZM18.4861 -0.0234375C8.25932 -0.0234375 -0.03125 8.26454 -0.03125 18.4881C-0.03125 28.7117 8.25932 36.9997 18.4861 36.9997C28.7129 36.9997 37.0035 28.7117 37.0035 18.4881C37.0035 8.26454 28.7129 -0.0234375 18.4861 -0.0234375Z" fill="#DCE0ED"/>
</g>
<path fill-rule="evenodd" clip-rule="evenodd" d="M20.7198 12.0736C20.1526 11.5052 19.4787 11.0544 18.7366 10.7471C17.9946 10.4398 17.1992 10.2822 16.396 10.2832C15.5929 10.2822 14.7974 10.4398 14.0554 10.7471C13.3134 11.0544 12.6394 11.5052 12.0722 12.0736C11.636 12.5091 11.268 13.008 10.9809 13.5534C10.5207 14.4303 10.2806 15.4058 10.2813 16.3961C10.2813 17.3737 10.5145 18.3514 10.9809 19.2388C11.2672 19.7847 11.6352 20.2837 12.0722 20.7185C13.0436 21.6914 14.3152 22.3077 15.6809 22.4675C17.0466 22.6273 18.4262 22.3213 19.5961 21.599C19.6505 21.5654 19.7072 21.5371 19.7604 21.5018C20.2807 21.1582 20.7457 20.7375 21.1394 20.254C21.3112 20.0434 21.4611 19.8213 21.6006 19.5951C21.6735 19.4771 21.7475 19.3602 21.8112 19.2388C22.2713 18.3619 22.5114 17.3863 22.5108 16.3961C22.5108 15.4184 22.2776 14.4408 21.8112 13.5534C21.524 13.008 21.1561 12.5091 20.7198 12.0736Z" fill="#DCE0ED"/>
</svg>
