<svg width="46" height="42" viewBox="0 0 46 42" fill="none" xmlns="http://www.w3.org/2000/svg">
<path d="M40.6844 2.64754C40.4225 1.87433 39.9324 1.20397 39.2821 0.729528C38.6318 0.255086 37.8536 0.000109265 37.0556 0H8.94444C7.27056 0 5.83944 1.10096 5.31556 2.64754L0 18.3493V39.3199C0 40.7616 1.15 41.9412 2.55556 41.9412H5.11111C5.78889 41.9412 6.4389 41.665 6.91816 41.1734C7.39742 40.6818 7.66667 40.0151 7.66667 39.3199V36.6985H38.3333V39.3199C38.3333 40.7616 39.4833 41.9412 40.8889 41.9412H43.4444C44.1222 41.9412 44.7722 41.665 45.2515 41.1734C45.7308 40.6818 46 40.0151 46 39.3199V18.3493L40.6844 2.64754ZM8.94444 28.8346C6.82333 28.8346 5.11111 27.0783 5.11111 24.9026C5.11111 22.7269 6.82333 20.9706 8.94444 20.9706C11.0656 20.9706 12.7778 22.7269 12.7778 24.9026C12.7778 27.0783 11.0656 28.8346 8.94444 28.8346ZM37.0556 28.8346C34.9344 28.8346 33.2222 27.0783 33.2222 24.9026C33.2222 22.7269 34.9344 20.9706 37.0556 20.9706C39.1767 20.9706 40.8889 22.7269 40.8889 24.9026C40.8889 27.0783 39.1767 28.8346 37.0556 28.8346ZM5.11111 15.7279L8.94444 3.93199H37.0556L40.8889 15.7279H5.11111Z" fill="white"/>
</svg>
