<svg width="42" height="42" viewBox="0 0 42 42" fill="none" xmlns="http://www.w3.org/2000/svg">
<path d="M24.7229 12.2326C23.7761 10.8239 21.8528 10.4755 20.472 11.4624L14.1792 15.96L12.8918 4.93285C12.5634 2.12057 10.1808 0 7.34947 0C4.38217 0 1.93388 2.32234 1.7773 5.2855L0.00479884 38.8293C-0.0862674 40.5527 1.28658 42 3.01237 42H38.8255C40.4888 42 41.8373 40.6516 41.8373 38.9882V14.0617C41.8373 11.8404 39.5148 10.3834 37.5149 11.35L27.4115 16.233L24.7229 12.2326ZM4.27594 37.8L6.17494 5.37954C6.21374 4.71723 6.76215 4.2 7.4256 4.2C8.06405 4.2 8.60038 4.68013 8.67076 5.31469L12.2739 37.8H4.27594ZM25.0875 27.3C25.0875 28.4563 24.1501 29.4 22.9938 29.4C21.8375 29.4 20.9001 28.4563 20.9001 27.3C20.9001 26.1437 21.8375 25.2 22.9938 25.2C24.1501 25.2 25.0875 26.1437 25.0875 27.3ZM29.2749 27.3C29.2749 26.1437 30.2123 25.2 31.3687 25.2C32.525 25.2 33.4624 26.1437 33.4624 27.3C33.4624 28.4563 32.525 29.4 31.3687 29.4C30.2123 29.4 29.2749 28.4563 29.2749 27.3Z" fill="#2C56DC"/>
</svg>
