<svg width="54" height="33" viewBox="0 0 54 33" fill="none" xmlns="http://www.w3.org/2000/svg">
<path d="M46.8 5.84329H44.1C43.8 5.3174 43.32 4.90837 42.72 4.73307L27 0L11.28 4.73307C10.68 4.90837 10.2 5.3174 9.9 5.84329H7.2C3.24 5.84329 0 8.99867 0 12.8552C0 16.7118 3.24 19.8672 7.2 19.8672H9.6V19.9256C9.6 20.6268 9.9 21.2696 10.5 21.7371L22.44 31.3785C25.08 33.5405 28.98 33.5405 31.62 31.3785L43.5 21.7371C44.04 21.2696 44.4 20.6268 44.4 19.9256V19.8672H46.8C50.76 19.8672 54 16.7118 54 12.8552C54 8.99867 50.76 5.84329 46.8 5.84329ZM9.6 17.5299H7.2C4.56 17.5299 2.4 15.4263 2.4 12.8552C2.4 10.2842 4.56 8.18061 7.2 8.18061H9.6V17.5299ZM28.2 25.1262C28.2 25.7689 27.66 26.2948 27 26.2948C26.34 26.2948 25.8 25.7689 25.8 25.1262V7.59628C25.8 6.95352 26.34 6.42762 27 6.42762C27.66 6.42762 28.2 6.95352 28.2 7.59628V25.1262ZM46.8 17.5299H44.4V8.18061H46.8C49.44 8.18061 51.6 10.2842 51.6 12.8552C51.6 15.4263 49.44 17.5299 46.8 17.5299Z" fill="white"/>
</svg>
