<svg width="85" height="85" viewBox="0 0 85 85" fill="none" xmlns="http://www.w3.org/2000/svg">
<circle cx="42.5" cy="42.5" r="42.5" fill="black"/>
<path d="M61.2868 38.1377C60.4056 37.3019 58.9215 37.37 58.0143 38.3236L57.4399 38.9275C57.3129 39.0609 57.1421 39.1425 56.9652 39.1541C56.7882 39.1658 56.6195 39.1066 56.4962 38.9897C56.3729 38.8727 56.3051 38.7075 56.3077 38.5304C56.3103 38.3533 56.3831 38.1789 56.51 38.0454L59.2412 35.1744C59.6766 34.7168 59.9261 34.1186 59.935 33.5115C59.9439 32.9043 59.7114 32.3379 59.2886 31.9369C58.8659 31.5358 58.2875 31.333 57.6807 31.373C57.074 31.413 56.4886 31.6925 56.0533 32.1501L53.9292 34.3829C53.8022 34.5164 53.6315 34.5979 53.4545 34.6096C53.2776 34.6212 53.1089 34.5621 52.9856 34.4451C52.8623 34.3281 52.7944 34.1629 52.797 33.9858C52.7996 33.8087 52.8724 33.6343 52.9994 33.5008L57.0374 29.2561C57.4727 28.7985 57.7222 28.2004 57.7311 27.5932C57.74 26.9861 57.5075 26.4197 57.0847 26.0186C56.662 25.6176 56.0836 25.4147 55.4769 25.4547C54.8701 25.4947 54.2847 25.7743 53.8494 26.2319L50.4181 29.8388C50.2911 29.9723 50.1204 30.0538 49.9434 30.0655C49.7664 30.0772 49.5977 30.018 49.4744 29.901C49.3511 29.784 49.2833 29.6188 49.2859 29.4418C49.2885 29.2647 49.3613 29.0902 49.4882 28.9568L53.7694 24.4564C54.2047 23.9988 54.4543 23.4006 54.4632 22.7935C54.4721 22.1864 54.2395 21.62 53.8168 21.2189C53.394 20.8179 52.8157 20.615 52.2089 20.655C51.6022 20.695 51.0168 20.9746 50.5814 21.4322L39.3966 33.1895C39.3861 33.2651 39.3509 33.3371 39.2967 33.3941C39.2425 33.4511 39.1723 33.4899 39.0972 33.5043L28.854 44.2717L44.4619 59.078L61.2687 41.4108C62.1759 40.4572 62.1679 38.9736 61.2868 38.1377ZM37.2387 28.0802C36.7788 27.6438 36.1888 27.3648 35.5433 27.2784C34.8978 27.192 34.2257 27.3021 33.612 27.5948C32.9983 27.8874 32.4705 28.3496 32.0953 28.9227C31.7202 29.4959 31.5145 30.1544 31.5042 30.815L31.3704 39.767L38.1432 32.6476L38.179 30.3747C38.1871 29.9364 38.1081 29.5079 37.9467 29.114C37.7853 28.7201 37.5447 28.3687 37.2387 28.0802Z" fill="white"/>
<path d="M44.7645 59.8441L28.7012 44.8203L23.3531 50.3645L39.4164 65.3883L44.7645 59.8441Z" fill="white"/>
</svg>
