<svg width="53" height="46" viewBox="0 0 53 46" fill="none" xmlns="http://www.w3.org/2000/svg">
<path d="M26.4972 40.5428C35.2784 40.5428 42.3969 33.7359 42.3969 25.3393C42.3969 16.9426 35.2784 10.1358 26.4972 10.1358C17.7161 10.1358 10.5976 16.9426 10.5976 25.3393C10.5976 33.7359 17.7161 40.5428 26.4972 40.5428Z" fill="#2F3035"/>
<path d="M18.9794 0C18.7048 0 18.4422 0.112199 18.2523 0.310583L13.9974 4.75725C13.8075 4.95564 13.5449 5.06783 13.2703 5.06783H5.29987C2.37169 5.06783 0 7.33569 0 10.1357V40.5427C0 43.3427 2.37169 45.6105 5.29987 45.6105H47.6988C50.627 45.6105 52.9987 43.3427 52.9987 40.5427V10.1357C52.9987 7.33569 50.627 5.06783 47.6988 5.06783H39.7284C39.4538 5.06783 39.1912 4.95564 39.0013 4.75725L34.7463 0.310582C34.5565 0.112198 34.2939 0 34.0193 0H18.9794ZM26.4993 38.0088C19.1855 38.0088 13.2497 32.3328 13.2497 25.3392C13.2497 18.3456 19.1855 12.6696 26.4993 12.6696C33.8132 12.6696 39.749 18.3456 39.749 25.3392C39.749 32.3328 33.8132 38.0088 26.4993 38.0088Z" fill="#2F3035"/>
<rect x="38.4872" y="21.5058" width="3.26146" height="22.0148" rx="1.62051" fill="white"/>
<rect x="29.5169" y="33.7348" width="3.26146" height="21.1995" rx="1.62051" transform="rotate(-90 29.5169 33.7348)" fill="white"/>
<rect x="4.98042" y="13.5537" width="3.9749" height="10.5997" rx="1.975" transform="rotate(-90 4.98042 13.5537)" fill="white"/>
</svg>
